<svg width="40" height="40" viewBox="0 0 40 40" fill="none" xmlns="http://www.w3.org/2000/svg">
<path d="M18.5547 0.734375C18.2734 0.859375 18.0078 1.14062 17.8984 1.41406C17.8593 1.53125 17.7812 1.98438 17.7343 2.42969C17.6797 2.875 17.6015 3.28125 17.5625 3.33594C17.5234 3.39062 17.25 3.50781 16.9687 3.60156C16.6797 3.69531 16.2109 3.89062 15.9218 4.03125C15.6328 4.17969 15.3359 4.29688 15.2578 4.29688C15.1797 4.29688 14.8047 4.04688 14.4297 3.75C13.1875 2.76562 12.8906 2.79688 11.625 4.04688C10.7343 4.91406 10.5468 5.20312 10.5468 5.66406C10.5468 6.03125 10.7031 6.32031 11.2578 7.00781C11.5156 7.3125 11.7187 7.61719 11.7187 7.67188C11.7187 7.73438 11.5937 8.02344 11.4453 8.32812C11.2968 8.625 11.0781 9.14062 10.9687 9.46875C10.8593 9.80469 10.7343 10.0938 10.7031 10.1172C10.664 10.1406 10.3203 10.1953 9.94528 10.2344C8.97653 10.3438 8.71872 10.4297 8.44528 10.7422C8.11715 11.1172 8.04684 11.4531 8.04684 12.5781C8.05465 14.2734 8.31247 14.625 9.67184 14.7656C10.7343 14.8828 10.664 14.8359 10.8906 15.5547C11 15.8984 11.2187 16.4531 11.3672 16.7734C11.5156 17.1016 11.6406 17.4062 11.6406 17.4609C11.6406 17.5156 11.4297 17.8203 11.1718 18.1406C10.9218 18.4609 10.6718 18.8203 10.625 18.9375C10.5078 19.25 10.5312 19.6562 10.6718 19.9453C10.8593 20.2969 12.1718 21.625 12.5156 21.8047C13.0937 22.1016 13.6015 21.9844 14.3359 21.375C14.5547 21.1953 14.7812 21.0078 14.8593 20.9531C14.9687 20.8672 15.0781 20.8984 15.6015 21.1562C15.9375 21.3281 16.4922 21.5625 16.8359 21.6797C17.1797 21.8047 17.5 21.9375 17.5547 21.9844C17.6093 22.0312 17.6875 22.4062 17.7422 22.8125C17.8281 23.5781 17.9218 23.8516 18.1797 24.0781C18.3984 24.2812 18.8672 24.4531 19.1797 24.4531H19.4531V25.8594V27.2656H13.0703C7.00778 27.2656 6.66403 27.2734 6.36715 27.4141C6.19528 27.4922 5.94528 27.6797 5.80465 27.8203C5.40622 28.2422 5.31247 28.5625 5.31247 29.5234V30.375L3.89059 30.4062C2.48434 30.4297 2.45309 30.4375 2.04684 30.6562C1.82809 30.7812 1.54684 31 1.43747 31.1484C1.0234 31.6953 1.00778 31.8359 1.03122 35.0469C1.05465 37.9297 1.06247 38.0156 1.22653 38.3281C1.44528 38.7422 1.93747 39.1641 2.3359 39.2812C2.53903 39.3438 3.64059 39.375 5.87497 39.375H9.10934L9.53903 39.1562C10.0703 38.8906 10.4297 38.4297 10.5468 37.8594C10.6015 37.5703 10.625 36.5078 10.6093 34.6328C10.5859 31.9297 10.5781 31.8281 10.414 31.5156C10.3203 31.3438 10.1015 31.0703 9.92965 30.9141C9.4609 30.4844 9.01559 30.3906 7.55465 30.3906H6.31247L6.34372 29.5312C6.36715 28.7656 6.38278 28.6562 6.54684 28.5L6.72653 28.3203L13.0859 28.2969L19.4531 28.2812V29.3359V30.3906H18.2812C17.6406 30.3906 16.9375 30.4297 16.7187 30.4766C16.1797 30.5938 15.7109 30.9609 15.4531 31.4766L15.2343 31.9062V34.9141C15.2343 38.2969 15.2343 38.2812 15.8203 38.8516C16.3672 39.3828 16.3672 39.3828 20.125 39.3594L23.4922 39.3359L23.875 39.1016C24.1093 38.9531 24.3437 38.7188 24.4922 38.4844L24.7265 38.1016L24.75 35.0859C24.7656 32.9609 24.7422 31.9766 24.6797 31.7422C24.5625 31.3047 24.1484 30.8359 23.6875 30.6094C23.3515 30.4453 23.1953 30.4297 21.9375 30.4062L20.5468 30.375V29.3281V28.2812H26.8828H33.2187L33.4453 28.5078C33.664 28.7344 33.6718 28.7578 33.6718 29.5625V30.3906H32.4375C30.9765 30.3906 30.539 30.4844 30.0625 30.9219C29.4297 31.4922 29.414 31.5469 29.3906 34.6719C29.375 36.5156 29.3984 37.5703 29.4531 37.8594C29.5703 38.4141 29.9297 38.8828 30.4609 39.1562L30.875 39.375H34.1172C36.3828 39.375 37.4609 39.3438 37.6718 39.2812C38.1093 39.1562 38.6172 38.6719 38.8203 38.2031C38.9843 37.8203 38.9922 37.7422 38.9687 34.8203C38.9453 31.5156 38.9453 31.5391 38.4062 31C37.9297 30.5156 37.6093 30.4375 36.0781 30.4062L34.6875 30.375V29.5078C34.6875 28.8281 34.6484 28.5625 34.539 28.3203C34.3593 27.9219 34.0312 27.5938 33.6328 27.4141C33.3359 27.2734 32.9609 27.2656 26.9375 27.2656H20.5468V25.8594V24.4531H20.8437C21 24.4531 21.2734 24.3828 21.4531 24.3047C22.0078 24.0547 22.1328 23.7734 22.3047 22.4062C22.3281 22.2109 22.3906 22.0156 22.4453 21.9688C22.5 21.9297 22.8203 21.8047 23.164 21.6797C23.5078 21.5625 24.0625 21.3281 24.3906 21.1641L24.9922 20.8594L25.3672 21.1484C25.5703 21.3047 25.875 21.5391 26.039 21.6641C26.2578 21.8438 26.4297 21.9062 26.7578 21.9375C27.3281 21.9844 27.6484 21.7891 28.539 20.8672C29.6875 19.6719 29.7265 19.2734 28.789 18.1172C28.5547 17.8281 28.3593 17.5234 28.3593 17.4531C28.3593 17.3828 28.4531 17.125 28.5703 16.8906C28.6875 16.6484 28.9062 16.1016 29.0625 15.6719L29.3359 14.8828L30.1797 14.7891C31.6015 14.6328 31.875 14.3438 31.9375 12.9375C31.9843 11.8359 31.914 11.25 31.6953 10.9297C31.3828 10.4766 31.1797 10.3828 30.2265 10.2656C29.7422 10.2031 29.3047 10.1094 29.25 10.0625C29.2031 10.0078 29.0859 9.73438 28.9843 9.45312C28.8906 9.17188 28.6718 8.67188 28.5 8.32812L28.1875 7.71094L28.414 7.42188C28.5312 7.25781 28.7968 6.90625 29 6.64062C29.7187 5.70312 29.6328 5.3125 28.414 4.08594C27.6953 3.375 27.4765 3.20312 27.1953 3.125C26.6718 2.98438 26.3203 3.125 25.5468 3.75781C25.1797 4.05469 24.8203 4.29688 24.7422 4.29688C24.664 4.29688 24.4218 4.20312 24.1953 4.08594C23.9687 3.97656 23.4765 3.76562 23.0859 3.625L22.3828 3.375L22.2578 2.38281C22.125 1.34375 22.0468 1.14844 21.6093 0.828125C21.414 0.679688 21.2656 0.664062 20.0937 0.648438C19.125 0.632812 18.7265 0.65625 18.5547 0.734375ZM21.0781 1.74219C21.125 1.79688 21.2031 2.19531 21.25 2.625C21.3047 3.04688 21.375 3.50781 21.414 3.64844C21.5312 4.00781 21.9375 4.33594 22.5547 4.53125C22.8437 4.63281 23.4218 4.85938 23.8359 5.04688C24.25 5.23438 24.6328 5.39062 24.6953 5.39062C25.0312 5.39062 25.4687 5.16406 26.0625 4.6875C26.4375 4.38281 26.7968 4.14062 26.8672 4.14062C27.0468 4.14062 28.4687 5.58594 28.414 5.71875C28.3906 5.77344 28.1484 6.10938 27.8672 6.46094C27.0859 7.45312 27.039 7.71875 27.5312 8.67188C27.6797 8.95312 27.9062 9.50781 28.0468 9.90625C28.4297 10.9844 28.7031 11.1797 30.039 11.2969C30.3828 11.3203 30.7109 11.3828 30.7656 11.4219C30.8281 11.4844 30.8593 11.8047 30.8593 12.5469C30.8593 13.7656 30.9062 13.7031 29.9765 13.7891C29.1484 13.8594 28.9218 13.9375 28.6172 14.2344C28.4297 14.4219 28.3047 14.6562 28.1562 15.1484C28.0468 15.5156 27.8203 16.0781 27.6562 16.4062C27.1172 17.4844 27.1406 17.7031 27.8984 18.6562C28.1953 19.0312 28.4375 19.3672 28.4375 19.4062C28.4375 19.5312 27.0078 20.9375 26.8828 20.9375C26.8125 20.9375 26.4922 20.7266 26.1718 20.4688C25.2578 19.7344 24.9609 19.7031 23.9062 20.2422C23.5859 20.4062 23.0078 20.6484 22.625 20.7812C21.5625 21.1406 21.3906 21.3516 21.2578 22.5C21.2031 22.9062 21.125 23.2812 21.0781 23.3359C20.9609 23.4766 19.039 23.4766 18.9218 23.3359C18.8828 23.2891 18.8047 22.9141 18.7578 22.5078C18.6172 21.3828 18.4218 21.125 17.4687 20.8125C17.1172 20.7031 16.5234 20.4609 16.1484 20.2656C15 19.6953 14.7578 19.7188 13.789 20.5C13.4922 20.7422 13.1875 20.9375 13.125 20.9375C12.9531 20.9375 11.5312 19.4922 11.5859 19.3594C11.6093 19.3047 11.8515 18.9688 12.1328 18.6172C12.8515 17.7031 12.875 17.4766 12.3437 16.4062C12.1797 16.0781 11.9531 15.5156 11.8437 15.1484C11.6953 14.6562 11.5703 14.4219 11.3828 14.2344C11.0781 13.9375 10.8515 13.8594 10.0234 13.7891C9.09372 13.7031 9.14059 13.7656 9.14059 12.5469C9.14059 11.8047 9.17184 11.4844 9.24215 11.4219C9.28903 11.3828 9.61715 11.3203 9.9609 11.2969C11.3125 11.1797 11.5156 11.0312 11.9531 9.82031C12.1172 9.35938 12.3593 8.79688 12.4843 8.57031C12.9453 7.75781 12.8906 7.41406 12.1406 6.46875C11.8593 6.10938 11.6093 5.77344 11.5859 5.71875C11.5312 5.58594 12.9531 4.14062 13.1328 4.14062C13.2031 4.14062 13.5703 4.38281 13.9375 4.67969C14.9843 5.51562 15.2109 5.54688 16.3515 4.99219C16.7031 4.82031 17.1718 4.625 17.3984 4.5625C17.6172 4.5 17.914 4.36719 18.0547 4.27344C18.5156 3.96094 18.6015 3.76562 18.7265 2.76562C18.789 2.25781 18.875 1.79688 18.9218 1.74219C19.039 1.59375 20.9609 1.60156 21.0781 1.74219ZM9.0859 31.5703C9.53903 31.8047 9.53122 31.7422 9.53122 34.8984V37.8125L9.30465 38.0625L9.07809 38.3203L5.92184 38.3438C2.41403 38.375 2.3984 38.3672 2.15622 37.8516C1.98434 37.4922 1.96872 32.4062 2.14059 32C2.35934 31.4688 2.2734 31.4844 5.76559 31.4844C7.92965 31.4844 8.96872 31.5078 9.0859 31.5703ZM23.4531 31.7109L23.7109 31.9375L23.7343 34.7969C23.7578 37.9453 23.75 38 23.2812 38.2422C22.9453 38.4141 17.0547 38.4141 16.7187 38.2422C16.25 38 16.2422 37.9453 16.2656 34.7969L16.289 31.9375L16.5468 31.7109L16.7968 31.4844H20H23.2031L23.4531 31.7109ZM37.6015 31.6484C37.9531 31.9219 37.9765 32.1797 37.9531 35.0938L37.9297 37.8125L37.6718 38.0625L37.4218 38.3203H34.1718H30.9218L30.6953 38.0625L30.4687 37.8125V34.9375C30.4765 31.875 30.4843 31.8047 30.8672 31.5938C31.0156 31.5156 31.7422 31.4922 34.2265 31.4844C37.3125 31.4844 37.4062 31.4922 37.6015 31.6484Z" fill="#EDA708"/>
<path d="M19.25 6.80469C17.6953 6.98438 16.0937 7.98438 15.2031 9.32812C13.6719 11.6406 13.9687 14.6094 15.9297 16.5703C16.6094 17.25 17.3437 17.7109 18.2422 18.0234C18.8125 18.2188 18.9687 18.2344 20 18.2344C21.0234 18.2344 21.1953 18.2188 21.7578 18.0234C22.6719 17.7188 23.3125 17.3125 24.0625 16.5625C24.7969 15.8281 25.1484 15.2891 25.4297 14.4766C26.3672 11.7812 25.289 8.90625 22.8047 7.46875C22.2969 7.17969 21.4219 6.89844 20.7344 6.79688C20.0859 6.71094 20.0469 6.71094 19.25 6.80469ZM21.0312 7.89844C22.625 8.22656 24.0781 9.60938 24.5625 11.2422C24.6328 11.4766 24.6875 11.75 24.6875 11.8516V12.0312H22.4219H20.1562V9.92188V7.8125H20.3906C20.5156 7.8125 20.8047 7.85156 21.0312 7.89844ZM19.1406 10.2891V12.6797L20.25 14.8516C20.8594 16.0469 21.3437 17.0469 21.3203 17.0703C21.2969 17.0938 21.0703 17.1484 20.8125 17.1953C20.2656 17.2969 19.1719 17.2422 18.6484 17.0781C17.1562 16.6094 15.914 15.3672 15.4531 13.8672C15.2265 13.1562 15.2187 11.9766 15.4219 11.2891C15.875 9.78125 17.0078 8.5625 18.4531 8.04688C19.2031 7.78125 19.1406 7.57031 19.1406 10.2891ZM24.6875 13.2266C24.6875 13.8594 24.0703 15.125 23.4453 15.7734C23.0312 16.1953 22.375 16.7031 22.3125 16.6328C22.2969 16.6172 21.8828 15.8047 21.3906 14.8203L20.4922 13.0469H22.5859H24.6875V13.2266Z" fill="#EDA708"/>
<path d="M4.06239 33.2031C3.86708 33.3984 3.85927 33.7656 4.04677 33.9297C4.17177 34.0469 4.41395 34.0625 5.80458 34.0625C7.3202 34.0625 7.42958 34.0547 7.57802 33.9062C7.78895 33.6953 7.77333 33.4219 7.55458 33.2188C7.3827 33.0547 7.30458 33.0469 5.79677 33.0469C4.3202 33.0469 4.21083 33.0547 4.06239 33.2031Z" fill="#EDA708"/>
<path d="M4.1094 35.8672C3.8594 36.0625 3.83596 36.3984 4.07034 36.6094C4.21877 36.7422 4.37502 36.7578 5.83596 36.7578C7.4219 36.7578 7.43752 36.7578 7.58596 36.5703C7.7969 36.3125 7.77346 36.0547 7.53127 35.8672C7.33596 35.7109 7.21877 35.7031 5.82034 35.7031C4.4219 35.7031 4.30471 35.7109 4.1094 35.8672Z" fill="#EDA708"/>
<path d="M18.2422 33.2422C18.1328 33.3438 18.0469 33.4688 18.0469 33.5156C18.0469 33.6406 18.2109 33.9297 18.3125 34C18.3594 34.0312 19.125 34.0625 20.0156 34.0625H21.6328L21.7891 33.8516C21.9766 33.6172 21.9453 33.3984 21.7031 33.1797C21.5625 33.0625 21.3594 33.0469 19.9844 33.0469C18.4375 33.0469 18.4297 33.0469 18.2422 33.2422Z" fill="#EDA708"/>
<path d="M18.375 35.7813C17.9843 35.9453 18.0078 36.5703 18.414 36.7266C18.5468 36.7734 19.2187 36.7969 20.1328 36.7813C21.7968 36.7578 21.8984 36.7266 21.8984 36.25C21.8984 35.7734 21.8047 35.7422 20.0937 35.7266C19.25 35.7188 18.4765 35.7422 18.375 35.7813Z" fill="#EDA708"/>
<path d="M32.4374 33.2266C32.2264 33.4531 32.2186 33.7031 32.4218 33.9062C32.5702 34.0547 32.6796 34.0625 34.203 34.0625C35.6874 34.0625 35.8436 34.0469 35.9608 33.9219C36.1405 33.7266 36.1249 33.3906 35.9374 33.2031C35.7889 33.0547 35.6796 33.0469 34.1952 33.0469C32.6327 33.0469 32.6014 33.0469 32.4374 33.2266Z" fill="#EDA708"/>
<path d="M32.5937 35.7813C32.1718 35.9531 32.1953 36.5625 32.6328 36.7266C32.7656 36.7734 33.4218 36.7969 34.3046 36.7813C35.6093 36.7578 35.7812 36.7422 35.9296 36.6094C36.164 36.3984 36.1406 36.0625 35.8906 35.8672C35.6953 35.7109 35.5859 35.7031 34.2265 35.7109C33.4296 35.7109 32.6953 35.7422 32.5937 35.7813Z" fill="#EDA708"/>
</svg>
