<svg width="72" height="72" viewBox="0 0 72 72" fill="none" xmlns="http://www.w3.org/2000/svg">
<g clip-path="url(#clip0_12_154)">
<path d="M4.7812 9.15467C2.5312 9.59061 0.576514 11.5875 0.140576 13.9219C-0.0562988 14.9344 -0.0562988 45.1125 0.140576 46.1391C0.604639 48.5719 2.69995 50.5547 5.2312 50.9062C5.72339 50.9906 13.5421 51.0469 22.8656 51.0469H39.614L39.9374 51.9187C42.9609 60.3562 52.0171 64.8844 60.4687 62.2125C61.8468 61.7906 63.6609 60.9047 64.0265 60.4969C64.8984 59.5406 64.2796 58.0781 62.9999 58.0781C62.7328 58.0781 62.0999 58.275 61.5937 58.514C59.0906 59.7094 56.7562 60.1453 54.1406 59.8922C48.4593 59.3297 43.8187 55.2937 42.3843 49.6406C42.1734 48.8109 42.1171 48.1219 42.1312 46.3359C42.1453 44.3109 42.1874 43.9594 42.5249 42.8344C43.9031 38.2922 47.2921 34.9031 51.8203 33.525C52.9593 33.1875 53.3109 33.1453 55.3359 33.1312C57.1218 33.1172 57.8109 33.1734 58.6406 33.3844C63.3515 34.5797 66.9374 37.9547 68.3718 42.525C68.8921 44.2125 69.1734 47.3203 68.9203 48.5719C68.6812 49.6969 67.7531 50.6531 66.7124 50.8781C65.2218 51.2015 63.914 50.5406 63.2671 49.1484C63.0421 48.6562 62.9999 48.1922 62.9999 45.1687C62.9999 41.4141 62.9437 41.1187 62.1562 40.7109C61.6499 40.4437 61.3546 40.4437 60.8343 40.7109C60.4546 40.9078 60.4124 40.8937 59.9203 40.5141C57.7828 38.8406 54.5765 38.5734 52.0171 39.8812C51.1874 40.2891 49.7953 41.5687 49.2328 42.4266C46.5749 46.4344 48.5156 51.989 53.1281 53.5922C55.5328 54.4359 58.4578 53.8453 60.3843 52.1297L61.0874 51.5109L61.8046 52.2281C65.1656 55.589 70.9734 53.775 71.8593 49.0781C71.9296 48.6703 71.9999 47.6719 71.9999 46.8422C71.9999 41.3859 69.6093 36.5344 65.3484 33.314C63.3234 31.7812 60.1453 30.4734 57.6984 30.164L56.9531 30.0656V22.0219C56.9531 14.4844 56.939 13.9219 56.6859 13.1906C55.9828 11.1515 54.3937 9.67499 52.3828 9.19686C51.6656 9.04217 47.9109 8.99999 28.4765 9.01405C15.7921 9.02811 5.13276 9.08436 4.7812 9.15467ZM51.0187 12.0797C50.9484 12.2906 29.8124 29.5875 29.4187 29.7703C28.9124 29.9953 27.9984 29.9953 27.5624 29.7703C27.1968 29.5734 7.00308 13.0781 6.25776 12.3609L5.83589 11.9531H28.4624C41.6531 11.9531 51.0468 12.0094 51.0187 12.0797ZM14.5406 23.0625C20.6296 28.0547 25.8749 32.2734 26.2124 32.4422C27.5203 33.1031 29.2921 33.1312 30.6843 32.5125C31.0218 32.3719 36.3093 28.125 42.4406 23.0906C48.5859 18.0422 53.6484 13.9219 53.7187 13.9219C53.9578 13.9219 53.9999 14.8781 53.9999 22.3031V30.0515L52.9171 30.2344C47.1656 31.1484 42.1734 35.2125 40.0781 40.6547C39.3609 42.5391 38.8687 45.6891 39.0515 47.2359L39.1359 47.9531L22.0359 47.925L4.94995 47.8828L4.3312 47.4609C4.00776 47.2219 3.57183 46.7437 3.37495 46.4062L3.02339 45.7734V30.0937C3.02339 21.4734 3.06558 14.3015 3.13589 14.1609C3.19214 14.0203 3.29058 13.9219 3.36089 13.95C3.4312 13.9781 8.46558 18.0703 14.5406 23.0625ZM57.4031 42.4406C58.1765 42.8203 59.1187 43.7203 59.4843 44.4375C60.089 45.6187 60.089 47.3203 59.4984 48.5016C58.3734 50.6953 55.6171 51.5953 53.4374 50.4844C52.7203 50.1187 51.8203 49.1766 51.4406 48.4031C50.9765 47.4469 50.9765 45.4922 51.4546 44.5781C52.0453 43.4391 53.0718 42.5672 54.2812 42.1734C54.9703 41.9484 56.6999 42.1031 57.4031 42.4406Z" fill="#EDA708" stroke="#EDA708" stroke-width="2"/>
</g>
<defs>
<clipPath id="clip0_12_154">
<rect width="72" height="72" fill="white"/>
</clipPath>
</defs>
</svg>
