<svg width="40" height="40" viewBox="0 0 40 40" fill="none" xmlns="http://www.w3.org/2000/svg">
<g clip-path="url(#clip0_9_102)">
<path d="M18.8751 0.125C18.0079 0.3125 17.4376 0.625 15.7579 1.82031C14.8907 2.4375 14.0391 3.03906 13.8751 3.15625L13.5704 3.35938H10.2813C7.0157 3.35938 6.99226 3.35938 6.67976 3.53906C6.50789 3.64062 6.29695 3.85156 6.19539 4.02344C6.02351 4.32812 6.0157 4.39844 6.0157 6.53125V8.72656L3.10945 10.7891C1.50789 11.9219 0.156327 12.8984 0.10164 12.9688C-0.0467979 13.1562 -0.0389854 38.2031 0.109452 38.6172C0.28914 39.1094 0.609452 39.5 1.03914 39.7344L1.44539 39.9609H20.0001H38.5548L38.961 39.7344C39.3907 39.5 39.711 39.1094 39.8907 38.6172C40.0391 38.2031 40.047 13.1562 39.8985 12.9609C39.8438 12.8984 38.4923 11.9141 36.8985 10.7812L33.9845 8.72656V6.53125C33.9845 4.39844 33.9766 4.32812 33.8048 4.02344C33.7032 3.85156 33.4923 3.64062 33.3204 3.53906C33.0079 3.35938 32.9845 3.35938 29.7188 3.35938H26.4298L25.8516 2.95312C25.5313 2.73438 24.6876 2.13281 23.9688 1.625C23.2501 1.11719 22.4376 0.59375 22.172 0.46875C21.1798 0.0234375 19.9532 -0.101562 18.8751 0.125ZM21.2891 1.5625C21.547 1.64844 21.9063 1.82031 22.086 1.9375C22.711 2.34375 23.8985 3.20312 23.9454 3.28125C23.9766 3.33594 22.6095 3.35938 20.0001 3.35938C17.5704 3.35938 16.0235 3.32812 16.0548 3.28906C16.0938 3.21094 17.0079 2.54688 17.8048 2.01562C18.1954 1.75 18.8673 1.47656 19.3751 1.375C19.7657 1.29688 20.8282 1.40625 21.2891 1.5625ZM32.6563 11.3516V18.0156L28.0001 21.8828C25.4376 24.0078 23.1329 25.9219 22.8829 26.1328C22.1954 26.7266 21.6641 27.0156 20.9376 27.1953C19.5548 27.5469 18.336 27.1953 17.047 26.0781C16.836 25.8906 14.5704 24 12.0001 21.875L7.34383 18.0156V11.3516V4.6875H20.0001H32.6563V11.3516ZM6.00008 15.2344L5.97664 16.8828L3.92195 15.1641C2.78914 14.2266 1.85945 13.4219 1.85164 13.3906C1.84383 13.3516 2.77351 12.6641 3.90633 11.8594L5.97664 10.3906L6.00008 11.9844C6.00789 12.8672 6.00789 14.3281 6.00008 15.2344ZM36.1485 11.8984C37.2345 12.6641 38.1407 13.3203 38.1641 13.3516C38.1876 13.3984 34.711 16.3594 34.1251 16.7812C33.9923 16.8828 33.9845 16.7578 33.9845 13.6328C33.9845 11.0547 34.0079 10.3906 34.086 10.4375C34.1329 10.4688 35.0704 11.125 36.1485 11.8984ZM8.86726 21.0156C12.3516 23.9062 15.1954 26.3047 15.1954 26.3359C15.1954 26.3828 3.71101 35.9688 1.46101 37.8047C1.33601 37.9062 1.3282 37.1719 1.3282 26.3281V14.75L1.93758 15.2578C2.2657 15.5312 5.3907 18.125 8.86726 21.0156ZM38.6563 32.1016L38.6329 37.8828L31.7188 32.1406C27.9141 28.9766 24.797 26.3672 24.7891 26.3438C24.7813 26.3125 27.8907 23.7031 31.7032 20.5391L38.6329 14.7891L38.6563 20.5547C38.6641 23.7344 38.6641 28.9297 38.6563 32.1016ZM17.0938 27.7969C17.6329 28.1719 18.6016 28.5156 19.3985 28.6172C19.9688 28.6875 20.211 28.6797 20.8048 28.5781C21.8985 28.3906 22.5548 28.0938 23.5157 27.3594L23.711 27.2109L30.5782 32.9219L37.4454 38.6328L28.7266 38.6562C23.9298 38.6641 16.0782 38.6641 11.2813 38.6562L2.55476 38.6328L9.42195 32.9219L16.2891 27.2109L16.5079 27.375C16.6329 27.4688 16.8985 27.6562 17.0938 27.7969Z" fill="#EDA708"/>
<path d="M20 7.32031C19.4375 7.36718 18.4765 7.57812 17.875 7.78125C15.25 8.67187 12.8515 11.1953 12.0937 13.8672C11.8593 14.7031 11.8437 16.3984 12.0625 17.2266C12.5937 19.2344 13.9765 20.8906 15.8281 21.7266C17.125 22.3125 19.4922 22.7031 21.289 22.6328C23.8593 22.5234 25.7812 21.7734 27.2812 20.3047C27.914 19.6797 27.9687 19.6016 27.9687 19.3203C27.9687 19.0078 27.789 18.7578 27.4843 18.6484C27.25 18.5625 26.914 18.7422 26.6093 19.1016C25.4609 20.4844 23.2187 21.3281 20.7422 21.3281C19.2734 21.3203 17.25 20.9219 16.2422 20.4297C14.4531 19.5625 13.3437 17.875 13.2265 15.8516C13.164 14.8594 13.3359 14.1094 13.8281 13.0859C14.6328 11.4375 16.0937 10.0156 17.7656 9.25781C19.6875 8.39062 22.0625 8.44531 23.6484 9.39062C24.6093 9.96093 25.4843 11.0625 25.8672 12.1875C26.1015 12.8828 26.164 14.3594 25.9843 15.0781C25.7031 16.2109 24.9375 17.3281 24.2187 17.6484C23.7343 17.8672 22.9531 17.875 22.7343 17.6562C22.539 17.4609 22.539 17.4844 22.7656 16.5781C23 15.6562 23.8281 11.5703 23.8281 11.3437C23.8281 11.25 23.7422 11.0859 23.6406 10.9687C23.5 10.8047 23.3906 10.75 23.164 10.75C22.789 10.75 22.5312 11.0312 22.4531 11.5234L22.4062 11.8828L22.0312 11.5312C21.4375 10.9766 20.5781 10.625 19.8203 10.625C18.1015 10.625 16.1015 12.5859 15.5859 14.7812C15.3281 15.8828 15.5 17.125 16.0234 17.9141C17 19.3906 19.2656 19.625 20.914 18.4062L21.3593 18.0781L21.6015 18.3984C21.9609 18.8828 22.5625 19.1484 23.2968 19.1484C23.9609 19.1562 24.3984 19.0547 24.9453 18.7812C25.9687 18.2578 26.8906 16.9219 27.2734 15.3906C27.4218 14.8203 27.4375 14.5859 27.3984 13.6406C27.3515 12.3906 27.2343 11.8906 26.7968 10.9766C25.7109 8.75 23.6718 7.45312 21.0547 7.32031C20.6718 7.30468 20.1953 7.30468 20 7.32031ZM20.6875 12.1797C21.0937 12.3906 21.4609 12.8125 21.7422 13.4297L21.9765 13.9297L21.8125 14.7578C21.6172 15.6953 21.3984 16.0781 20.5937 16.9062C19.8047 17.7109 18.875 18.0312 18.0234 17.7812C17.2109 17.5469 16.7968 16.8984 16.7968 15.8594C16.7968 14.3203 18.0703 12.4375 19.375 12.0391C19.7422 11.9297 20.3125 11.9922 20.6875 12.1797Z" fill="#EDA708"/>
</g>
<defs>
<clipPath id="clip0_9_102">
<rect width="40" height="40" fill="white"/>
</clipPath>
</defs>
</svg>
