<svg width="40" height="40" viewBox="0 0 40 40" fill="none" xmlns="http://www.w3.org/2000/svg">
<path d="M12.0313 0.625C11.8828 0.773438 11.875 0.882812 11.875 2.92969V5.07812H11.3125C10.1406 5.08594 9.28125 5.8125 9.14844 6.91406L9.10156 7.30469L5.52344 7.34375C2.46094 7.375 1.9375 7.39844 1.875 7.5C1.82813 7.57031 1.79688 12.2422 1.79688 19.7344C1.79688 30.9141 1.80469 31.8672 1.92969 31.9609C2.03125 32.0547 3.21875 32.0703 8.80469 32.0938L15.5547 32.1094L15.5313 33.8125C15.5078 35.7031 15.4766 35.8203 14.9375 36.375C14.4297 36.8984 14.125 36.9844 12.5938 37.0312C11.3672 37.0625 11.2266 37.0859 11.125 37.2188C11.0469 37.3359 11.0156 37.625 11.0156 38.2969C11.0156 39.1172 11.0313 39.2344 11.1719 39.375C11.3281 39.5312 11.4297 39.5312 20 39.5312C28.5703 39.5312 28.6719 39.5312 28.8281 39.375C28.9688 39.2344 28.9844 39.1172 28.9844 38.2969C28.9844 37.625 28.9531 37.3359 28.875 37.2188C28.7734 37.0859 28.6328 37.0625 27.4063 37.0312C25.8828 36.9844 25.5859 36.8984 25.0625 36.3672C24.5234 35.8203 24.4922 35.7031 24.4688 33.8125L24.4453 32.1094L31.1953 32.0938C36.7813 32.0703 37.9688 32.0547 38.0703 31.9609C38.1953 31.8672 38.2031 30.9141 38.2031 19.7188C38.2031 8.79688 38.1875 7.57812 38.0781 7.46875C37.9688 7.35938 37.4844 7.34375 33.9375 7.34375H29.9219L29.6016 7.11719C29.2656 6.86719 28.7188 6.71875 28.1641 6.71875H27.8125V3.75C27.8125 0.882812 27.8047 0.773438 27.6563 0.625C27.5 0.46875 27.3984 0.46875 19.8438 0.46875C12.2891 0.46875 12.1875 0.46875 12.0313 0.625ZM26.875 5.82031V10.2344L22.3281 10.25L17.7734 10.2734L15.9844 12.5547L14.1875 14.8438H13.5H12.8125V8.125V1.40625H19.8438H26.875V5.82031ZM11.875 10.4297V14.8438H10.9766H10.0781V10.875C10.0781 7.25781 10.0938 6.89062 10.2188 6.64062C10.4297 6.21094 10.7969 6.01562 11.375 6.01562H11.875V10.4297ZM29.1172 7.9375C29.5156 8.23438 29.6094 8.53906 29.6094 9.45312V10.2344H28.7109H27.8125V8.9375V7.63281L28.3281 7.67969C28.7188 7.71875 28.9141 7.78125 29.1172 7.9375ZM9.14063 11.5625V14.8438H8.85156C8.14063 14.8516 7.5625 15.375 7.5625 16.0391C7.5625 16.4688 9.03125 23.9297 9.17188 24.2031C9.32031 24.4922 9.59375 24.7344 9.9375 24.8828C10.1953 24.9844 11.3438 25 19.8594 25C29.1016 25 29.5078 24.9922 29.8125 24.8516C30.1172 24.7109 30.4688 24.3438 30.5703 24.0469C30.5938 23.9766 31.1641 21.1016 31.8359 17.6562C33.1641 10.8047 33.1406 11.0469 32.6797 10.6094C32.3594 10.3047 32.1016 10.2344 31.2813 10.2344H30.5469V9.42969C30.5469 8.99219 30.5234 8.55469 30.5 8.45312L30.4531 8.28125H33.8594H37.2656V19.6875V31.0938H20H2.73438V19.6875V8.28125H5.9375H9.14063V11.5625ZM32.0156 11.3047C32.0625 11.3984 31.6953 13.4609 30.8828 17.6172C29.8594 22.8906 29.6563 23.8125 29.5156 23.9219C29.3672 24.0547 28.7891 24.0625 19.8438 24.0625C10.8125 24.0625 10.3203 24.0547 10.1563 23.9219C10.0078 23.7969 9.89063 23.3203 9.25 20.0391C8.84375 17.9766 8.51563 16.2188 8.51563 16.125C8.51563 15.7891 8.55469 15.7812 11.6563 15.7812H14.6172L14.7891 15.5938C14.8828 15.4922 15.7031 14.4531 16.6016 13.2969L18.2422 11.1797H25.0938C31.5469 11.1719 31.9531 11.1797 32.0156 11.3047ZM23.4531 33.7656C23.4922 35.6406 23.5703 35.9922 24.1016 36.7188C24.4063 37.1328 25.1484 37.6719 25.6094 37.8203C25.7656 37.875 26.3828 37.9297 26.9766 37.9453L28.0469 37.9844V38.2891V38.5938H20H11.9531V38.2891V37.9844L13.0703 37.9531C14.125 37.9297 14.2031 37.9141 14.7109 37.6797C15.3047 37.3984 15.9219 36.8203 16.1484 36.3359L16.2891 36.0234L18.6094 36.0156C19.8828 36.0156 21.0156 35.9844 21.1172 35.9453C21.5156 35.7891 21.4922 35.2266 21.0859 35.0859C20.9297 35.0312 20.0547 35 18.7031 35H16.5625V33.5547V32.1094H19.9922H23.4219L23.4531 33.7656Z" fill="#EDA708"/>
<path d="M15.0078 3.02344C14.8828 3.13281 14.8438 3.26562 14.8281 3.67187L14.8047 4.17969L14.2969 4.20312C13.5703 4.23437 13.5156 4.3125 13.5156 5.39844C13.5156 6.47656 13.5781 6.5625 14.3359 6.5625H14.8359L14.8594 7.125C14.8828 7.64062 14.8984 7.70312 15.0781 7.78906C15.3281 7.91406 16.6719 7.92187 16.8984 7.80469C17.1562 7.66406 17.1875 7.58594 17.1875 7.04687V6.5625H17.6797C17.9453 6.5625 18.2031 6.53125 18.25 6.5C18.4453 6.375 18.5156 6.0625 18.5156 5.32812C18.5156 4.32031 18.4531 4.23437 17.7344 4.20312L17.2266 4.17969L17.1875 3.64844C17.1328 2.92969 17.0781 2.89062 16.0078 2.89062C15.3281 2.89062 15.1406 2.91406 15.0078 3.02344ZM16.25 4.3125C16.25 4.58594 16.2812 4.84375 16.3125 4.89062C16.4219 5.0625 16.7188 5.15625 17.1406 5.15625C17.5781 5.15625 17.5781 5.15625 17.5781 5.39062V5.625H17.0391C16.3672 5.625 16.25 5.74219 16.25 6.42187C16.25 6.875 16.25 6.875 16.0156 6.875H15.7812V6.40625C15.7812 5.75781 15.6406 5.625 14.9609 5.625H14.4531V5.39062V5.15625H14.9219C15.3203 5.15625 15.4297 5.125 15.5859 4.96094C15.75 4.80469 15.7812 4.69531 15.7812 4.29687V3.82812H16.0156H16.25V4.3125Z" fill="#EDA708"/>
<path d="M20.8671 3.69531C20.6093 3.82031 20.5155 4 20.5702 4.23438C20.6561 4.57812 20.8671 4.60938 23.2811 4.60938C25.6718 4.60938 25.9061 4.57812 25.9843 4.25C26.0546 3.96875 25.953 3.77344 25.6874 3.67969C25.328 3.55469 21.1171 3.5625 20.8671 3.69531Z" fill="#EDA708"/>
<path d="M19.8203 6.03125C19.4453 6.16406 19.4375 6.69531 19.8125 6.85937C20.086 6.99219 25.461 6.99219 25.7422 6.85937C25.9688 6.75781 26.0782 6.44531 25.961 6.25781C25.7735 5.96094 25.586 5.9375 22.7735 5.94531C21.1485 5.94531 19.9532 5.98437 19.8203 6.03125Z" fill="#EDA708"/>
<path d="M19.8438 8.33594C19.5391 8.44531 19.4297 8.875 19.6563 9.09375C19.7579 9.20312 20.1563 9.21875 22.7657 9.21875C25.5626 9.21875 25.7657 9.21094 25.8829 9.07812C26.0469 8.89844 26.0547 8.67187 25.9063 8.46875C25.7969 8.32812 25.6641 8.32031 22.8751 8.30469C21.2735 8.29687 19.9063 8.3125 19.8438 8.33594Z" fill="#EDA708"/>
<path d="M3.76552 27.75C3.57802 27.9922 3.58583 28.1953 3.78114 28.3984L3.97645 28.5938H19.9765C34.3358 28.5938 35.9999 28.5781 36.1561 28.4687C36.3827 28.3125 36.3983 27.8516 36.1796 27.7344C35.9374 27.6094 3.87489 27.625 3.76552 27.75Z" fill="#EDA708"/>
<path d="M19.2187 29.5312C19.0312 29.7188 19.0234 29.9062 19.1874 30.1406C19.2968 30.2969 19.3671 30.3125 20.039 30.3125C20.7109 30.3125 20.7812 30.2969 20.8905 30.1406C21.0546 29.9062 21.0468 29.7188 20.8593 29.5312C20.7265 29.3984 20.6015 29.375 20.039 29.375C19.4765 29.375 19.3515 29.3984 19.2187 29.5312Z" fill="#EDA708"/>
<path d="M17.4845 14.2109C16.3048 14.5937 15.5548 15.5156 15.3673 16.8437L15.2891 17.4219H14.7579C14.297 17.4219 14.211 17.4453 14.1095 17.5937C13.9532 17.8125 13.9532 17.9766 14.0938 18.1719C14.1876 18.2891 14.3282 18.3281 14.8438 18.3594L15.4845 18.3984L15.6407 18.7812C16.0626 19.8672 17.1641 21.0937 18.5313 22.0078C19.6407 22.75 20.1563 23.0078 20.3985 22.9453C20.7266 22.8594 22.1954 21.9453 22.8282 21.4297C23.836 20.6016 24.6173 19.625 24.9063 18.8125L25.0391 18.4375H25.6407C26.3126 18.4375 26.5626 18.3047 26.5626 17.9453C26.5626 17.625 26.336 17.5 25.7657 17.5H25.2579L25.2032 16.9531C25.1798 16.6484 25.086 16.2266 25.0079 16.0078C24.3438 14.2656 22.086 13.5078 20.586 14.5312L20.2735 14.7422L19.9688 14.5156C19.3438 14.0625 18.336 13.9375 17.4845 14.2109ZM19.0157 15.0937C19.2188 15.1562 19.4766 15.3437 19.7423 15.6016C19.9688 15.8281 20.2032 16.0156 20.2735 16.0156C20.3438 16.0156 20.5782 15.8281 20.8048 15.6016C21.5938 14.8125 22.6798 14.7891 23.547 15.5547C23.9923 15.9531 24.2188 16.4219 24.2423 17.0078L24.2579 17.4609L23.2891 17.4844L22.3204 17.5078L21.7501 18.0078L21.1876 18.5156L20.9923 18.0625C20.8907 17.8125 20.7501 17.5703 20.6876 17.5156C20.6016 17.4531 19.9688 17.4219 18.4298 17.4062L16.2891 17.3828L16.3126 16.9922C16.4063 15.6328 17.7188 14.7109 19.0157 15.0937ZM20.336 18.9453C20.7813 20.0078 20.9298 20.0234 21.9532 19.1016L22.6954 18.4375H23.3829H24.0704L23.9376 18.6875C23.3829 19.7734 22.1563 20.9297 20.6641 21.7578L20.2735 21.9687L19.5938 21.5703C18.1407 20.7109 16.922 19.5 16.5626 18.5469L16.4845 18.3594L18.297 18.375L20.1016 18.3984L20.336 18.9453Z" fill="#EDA708"/>
</svg>
