<svg width="40" height="40" viewBox="0 0 40 40" fill="none" xmlns="http://www.w3.org/2000/svg">
<path d="M4.26563 1.96093C3.78125 2.07812 3.07031 2.49218 2.72656 2.86718C2.55469 3.05468 2.29688 3.44531 2.16406 3.73437L1.91406 4.25781V17.1953V30.125L2.20313 30.7187C2.55469 31.4297 3.00781 31.8672 3.73438 32.2109L4.25781 32.4609L10.5703 32.4844L16.875 32.5078V34.6875V36.875H15.1953C13.5078 36.875 13.5078 36.875 13.3203 37.0703C13.0625 37.3203 13.0625 37.6797 13.3203 37.9297L13.5078 38.125H20H26.4922L26.6797 37.9297C26.9375 37.6797 26.9375 37.3203 26.6797 37.0703C26.4922 36.875 26.4922 36.875 24.8047 36.875H23.125V34.6875V32.5078L29.4375 32.4844L35.75 32.4609L36.3438 32.1719C37.0547 31.8203 37.4922 31.3672 37.8359 30.6406L38.0859 30.1172L38.1094 21.5L38.125 12.8906L37.9375 12.6953C37.6797 12.4375 37.3203 12.4375 37.0703 12.6953L36.875 12.8828V21.2578C36.875 27.6016 36.8516 29.7109 36.7813 29.9531C36.6563 30.3828 36.0078 31.0312 35.5781 31.1562C35.1094 31.2969 4.89063 31.2969 4.42188 31.1562C3.99219 31.0312 3.34375 30.3828 3.21875 29.9531C3.08594 29.4844 3.08594 4.89062 3.21875 4.42187C3.34375 3.99218 3.99219 3.34375 4.42188 3.21875C4.89063 3.07812 35.1094 3.07812 35.5781 3.21875C36.0078 3.34375 36.6563 3.99218 36.7813 4.42187C36.8438 4.625 36.875 5.29687 36.875 6.24218C36.875 7.72656 36.875 7.74218 37.0703 7.92968C37.3203 8.1875 37.6797 8.1875 37.9375 7.92968L38.1406 7.72656L38.1094 5.99218L38.0859 4.25781L37.8359 3.73437C37.4922 3.00781 37.0547 2.55468 36.3438 2.20312L35.75 1.91406L20.1641 1.89843C10.9297 1.89843 4.44531 1.92187 4.26563 1.96093ZM21.875 34.6875V36.875H20H18.125V34.6875V32.5H20H21.875V34.6875Z" fill="#EDA708"/>
<path d="M6.25 5.10156C5.86719 5.22656 5.21094 5.89844 5.09375 6.29688C4.96094 6.76563 4.96094 26.9844 5.09375 27.4531C5.21875 27.8828 5.86719 28.5313 6.29688 28.6563C6.54688 28.7266 9.72656 28.75 20.0156 28.75C35.1406 28.75 33.8672 28.8047 34.4766 28.125C34.6641 27.9219 34.8594 27.6094 34.9062 27.4375C35.0391 26.9922 35.0391 6.75781 34.9062 6.3125C34.8594 6.14063 34.6641 5.82813 34.4766 5.625C33.8672 4.94531 35.1484 5 19.9688 5.00781C10.4062 5.01563 6.44531 5.03906 6.25 5.10156ZM33.5547 6.44531L33.75 6.63281V16.875V27.1172L33.5547 27.3047L33.3672 27.5H20H6.63281L6.44531 27.3047L6.25 27.1172V16.875V6.63281L6.44531 6.44531L6.63281 6.25H20H33.3672L33.5547 6.44531Z" fill="#EDA708"/>
<path d="M20 10.7266C19.6172 10.8516 18.9609 11.5234 18.8438 11.9219C18.7891 12.1016 18.75 12.6406 18.75 13.125C18.75 13.6094 18.7891 14.1484 18.8438 14.3281C18.9688 14.7578 19.6172 15.4063 20.0469 15.5313C20.2891 15.6016 21.6641 15.625 25.3281 15.625C30.9844 15.625 30.7734 15.6484 31.3516 15C31.7891 14.5156 31.875 14.2031 31.875 13.125C31.875 12.0469 31.7891 11.7344 31.3516 11.25C30.7656 10.6016 30.9922 10.625 25.2812 10.6328C21.8672 10.6406 20.1875 10.6719 20 10.7266ZM30.4297 12.0703C30.6172 12.25 30.625 12.3125 30.625 13.125C30.625 13.9375 30.6172 14 30.4297 14.1797L30.2422 14.375H25.3125H20.3828L20.1953 14.1797C20.0078 14 20 13.9375 20 13.125C20 12.3125 20.0078 12.25 20.1953 12.0703L20.3828 11.875H25.3125H30.2422L30.4297 12.0703Z" fill="#EDA708"/>
<path d="M10.7422 11.3594C10.1797 11.6172 10 12.0078 10 13.0078V13.7344L9.14844 13.7656C8.22656 13.7891 8.04688 13.8594 7.70312 14.3281C7.55469 14.5234 7.53906 14.6562 7.53906 15.625C7.53906 16.5938 7.55469 16.7266 7.70312 16.9219C8.04688 17.3906 8.22656 17.4609 9.14062 17.4844L9.98438 17.5156L10.0156 18.3594C10.0391 19.2734 10.1094 19.4531 10.5781 19.7969C10.7734 19.9453 10.9062 19.9609 11.875 19.9609C12.8438 19.9609 12.9766 19.9453 13.1719 19.7969C13.6406 19.4531 13.7109 19.2734 13.7344 18.3594L13.7656 17.5156L14.6094 17.4844C15.5234 17.4609 15.7031 17.3906 16.0469 16.9219C16.1953 16.7266 16.2109 16.5938 16.2109 15.625C16.2109 14.6562 16.1953 14.5234 16.0469 14.3281C15.7031 13.8594 15.5234 13.7891 14.6094 13.7656L13.7656 13.7344L13.7344 12.8906C13.7109 11.9766 13.6406 11.7969 13.1719 11.4531C12.9844 11.3125 12.8281 11.2891 11.9688 11.2656C11.2578 11.2578 10.9141 11.2812 10.7422 11.3594ZM12.5 13.5547C12.5 14.5781 12.5078 14.625 12.6953 14.8047C12.875 14.9922 12.9219 15 13.9453 15H15V15.625V16.25H13.9453C12.9219 16.25 12.875 16.2578 12.6953 16.4453C12.5078 16.625 12.5 16.6719 12.5 17.6953V18.75H11.875H11.25V17.6953C11.25 16.6719 11.2422 16.625 11.0547 16.4453C10.875 16.2578 10.8281 16.25 9.80469 16.25H8.75V15.625V15H9.80469C10.8281 15 10.875 14.9922 11.0547 14.8047C11.2422 14.625 11.25 14.5781 11.25 13.5547V12.5H11.875H12.5V13.5547Z" fill="#EDA708"/>
<path d="M18.9453 17.6953C18.8203 17.8125 18.75 17.9766 18.75 18.125C18.75 18.2734 18.8203 18.4375 18.9453 18.5547L19.1328 18.75H25.3125H31.4922L31.6797 18.5547C31.8047 18.4375 31.875 18.2734 31.875 18.125C31.875 17.9766 31.8047 17.8125 31.6797 17.6953L31.4922 17.5H25.3125H19.1328L18.9453 17.6953Z" fill="#EDA708"/>
<path d="M18.9453 20.1953C18.8203 20.3125 18.75 20.4766 18.75 20.625C18.75 20.7734 18.8203 20.9375 18.9453 21.0547L19.1328 21.25H25.3125H31.4922L31.6797 21.0547C31.8047 20.9375 31.875 20.7734 31.875 20.625C31.875 20.4766 31.8047 20.3125 31.6797 20.1953L31.4922 20H25.3125H19.1328L18.9453 20.1953Z" fill="#EDA708"/>
<path d="M18.9453 22.6953C18.8203 22.8125 18.75 22.9766 18.75 23.125C18.75 23.2734 18.8203 23.4375 18.9453 23.5547L19.1328 23.75H24.6875H30.2422L30.4297 23.5547C30.5547 23.4375 30.625 23.2734 30.625 23.125C30.625 22.9766 30.5547 22.8125 30.4297 22.6953L30.2422 22.5H24.6875H19.1328L18.9453 22.6953Z" fill="#EDA708"/>
<path d="M37.0703 9.57031C36.8984 9.73438 36.875 9.82812 36.875 10.3125C36.875 10.7969 36.8984 10.8906 37.0703 11.0547C37.1875 11.1797 37.3516 11.25 37.5 11.25C37.6484 11.25 37.8125 11.1797 37.9297 11.0547C38.1016 10.8906 38.125 10.7969 38.125 10.3125C38.125 9.82812 38.1016 9.73438 37.9297 9.57031C37.8125 9.44531 37.6484 9.375 37.5 9.375C37.3516 9.375 37.1875 9.44531 37.0703 9.57031Z" fill="#EDA708"/>
</svg>
