<svg width="73" height="73" viewBox="0 0 73 73" fill="none" xmlns="http://www.w3.org/2000/svg">
<path d="M17.8223 3.35059C15.3557 3.73555 12.5041 4.90469 10.4225 6.37324C9.90918 6.74394 8.89687 7.62793 8.19824 8.32656C6.15938 10.3797 4.79062 12.6324 3.9209 15.3984C3.13672 17.9221 3.13672 17.8508 3.13672 36.5C3.13672 55.3061 3.13672 55.1064 3.97793 57.7584C4.84766 60.4531 6.21641 62.6916 8.26953 64.7305C10.3084 66.7836 12.5469 68.1523 15.2416 69.0221C17.7367 69.8205 18.4068 69.8633 28.6297 69.8633H37.9543L38.3678 69.4498L38.7812 69.0363V56.9029V44.7695L38.3678 44.3133L37.9543 43.8428L34.3756 43.8L30.7969 43.7572V40.6348V37.498H34.3471C37.9115 37.498 37.9115 37.498 38.3107 37.1559L38.71 36.8137L38.7812 30.8396C38.8668 24.4236 38.8953 24.2668 39.6795 22.9123C40.1215 22.1566 41.3477 21.0018 42.2459 20.46C44.1422 19.3621 46.6801 18.7062 49.6172 18.5779C51.1855 18.5066 53.8803 18.6777 54.6502 18.9059C54.8641 18.9771 54.8926 19.248 54.8926 21.8857V24.7943L51.6561 24.8371L48.4053 24.8799L47.6211 25.3219C46.2951 26.0775 45.5395 27.5176 45.4539 29.4424C45.4396 29.9129 45.4396 31.7236 45.4539 33.4773L45.4824 36.6711L45.8959 37.0846L46.3094 37.498H50.1875H54.0656L53.9801 37.883C53.9373 38.1111 53.7377 39.3373 53.5381 40.6348C53.3385 41.9322 53.1389 43.1584 53.0961 43.3723L53.0105 43.7715H49.8168C46.4234 43.7715 45.9672 43.8428 45.625 44.4701C45.4254 44.8551 45.4254 68.7654 45.625 69.1504C45.9957 69.8348 46.1668 69.8633 50.0449 69.8633C54.2652 69.8633 55.7338 69.6922 58.0008 68.9365C64.1744 66.8691 68.6799 61.4939 69.6494 55.0494C69.9631 53.0248 69.9631 19.9752 69.6494 17.9506C68.523 10.4367 62.5775 4.47695 55.0779 3.35059C53.1246 3.05117 19.7186 3.05117 17.8223 3.35059ZM56.1045 6.45879C61.2373 7.85605 65.1297 11.7627 66.5555 16.8955L66.9404 18.3213V36.5V54.6787L66.5555 56.1045C65.1297 61.2516 61.1945 65.1867 56.1045 66.527C54.8213 66.8691 54.3508 66.9119 51.5135 66.9832L48.334 67.0402V56.8316V46.623H51.5277C54.5219 46.623 54.7357 46.6088 55.0779 46.3236C55.577 45.9387 55.6482 45.682 56.4609 40.5064C57.1025 36.4002 57.1453 36.001 56.96 35.5447C56.6035 34.7178 56.2471 34.6465 52.041 34.6465H48.334V32.5648C48.334 31.4242 48.277 30.526 48.2057 30.5687C48.1486 30.6115 48.1771 30.1125 48.277 29.4709C48.5764 27.6031 48.4195 27.6602 52.9107 27.6602C56.8459 27.6602 57.2594 27.6031 57.6016 26.9615C57.6871 26.7762 57.7441 24.9369 57.7441 21.9855C57.7441 17.4658 57.7299 17.2805 57.4447 16.924C56.9885 16.3252 54.8498 15.8832 51.6846 15.7406C44.4701 15.3984 38.6814 17.9791 36.7281 22.4275C36.0295 23.9816 35.9297 24.9797 35.9297 30.0127V34.6465H32.5791C29.0146 34.6465 28.4158 34.732 28.1021 35.3309C28.0023 35.5305 27.9453 37.3412 27.9453 40.7061V45.7961L28.3588 46.2096L28.7723 46.623H32.351H35.9297V56.8174V67.026L27.1326 66.9832L18.3213 66.9262L16.9525 66.5555C11.2637 65.0014 7.18594 60.5814 6.21641 54.9068C6.0168 53.7234 5.98828 51.5563 5.98828 36.5C5.98828 21.4437 6.0168 19.2766 6.21641 18.0932C7.25723 12.0193 11.9623 7.28574 18.0361 6.2164C18.9914 6.04531 22.1281 6.01679 36.9277 6.03105L54.6787 6.05957L56.1045 6.45879Z" fill="#EDA708" stroke="#EDA708" stroke-width="2"/>
</svg>
