<svg width="40" height="40" viewBox="0 0 40 40" fill="none" xmlns="http://www.w3.org/2000/svg">
<g clip-path="url(#clip0_9_56)">
<path d="M5.9766 0.734379C5.2891 1.03125 4.89066 1.64844 4.88285 2.42188C4.88285 3.25782 5.3516 3.875 6.20316 4.14063C6.96097 4.38282 8.00785 3.88282 8.2891 3.14844C8.3516 2.97657 8.39066 2.96875 9.19535 2.96875H10.0313L11.1641 4.09375L12.2969 5.21875L12.0157 5.53907C11.8594 5.71094 11.6875 5.99219 11.6328 6.17188C11.5469 6.46094 11.5547 6.5625 11.7422 7.14063C11.8594 7.49219 11.9532 7.80469 11.9532 7.83594C11.9532 7.86719 10.8672 7.89063 9.5391 7.89063C7.1641 7.89063 7.11722 7.89063 7.07035 7.72657C6.92972 7.29688 6.28128 6.79688 5.71878 6.69532C5.04691 6.5625 4.19535 7 3.8516 7.65625C3.68753 7.95313 3.6641 8.09375 3.68753 8.5625C3.71878 9.21875 3.94535 9.63282 4.46097 9.97657C4.83597 10.2188 5.58597 10.3125 6.0391 10.1641C6.39066 10.0469 6.90628 9.60157 7.03128 9.29688L7.12503 9.0625H9.42972C11.2344 9.0625 11.7266 9.08594 11.7032 9.15625C11.6875 9.21094 11.3047 9.45313 10.8516 9.6875C10.125 10.0703 10.0235 10.1563 9.86722 10.4688C9.75785 10.6797 9.68753 10.9531 9.68753 11.1875V11.5625H7.07035C4.67972 11.5625 4.42191 11.5781 4.06253 11.7109C3.49222 11.9297 3.0391 12.3359 2.7266 12.9063L2.46097 13.3984L2.43753 24L2.42191 34.6094H1.60941C0.906283 34.6094 0.773471 34.6328 0.539096 34.7891C0.070346 35.1016 -0.00777898 35.3672 0.0156585 36.4844C0.039096 37.3438 0.0625335 37.5156 0.250034 37.9063C0.492221 38.4219 0.953158 38.8984 1.46878 39.1484L1.83597 39.3359H20H38.1641L38.5313 39.1484C39.0469 38.8984 39.5078 38.4219 39.75 37.9063C39.9375 37.5156 39.961 37.3438 39.9844 36.4844C40.0078 35.3672 39.9297 35.1016 39.461 34.7891C39.2266 34.6328 39.0938 34.6094 38.3907 34.6094H37.5782L37.5625 24.0391L37.5391 13.4766L37.336 13.0469C37.0703 12.4688 36.7422 12.1094 36.2344 11.8281L35.8203 11.6016L33.0703 11.5781L30.3125 11.5547V11.1875C30.3125 10.9531 30.2422 10.6797 30.1407 10.4688C29.9766 10.1563 29.875 10.0703 29.1485 9.6875C28.6953 9.45313 28.3125 9.21094 28.2969 9.15625C28.2735 9.08594 28.7657 9.0625 30.5703 9.0625H32.875L32.9688 9.29688C33.0938 9.60157 33.6094 10.0469 33.961 10.1641C34.4141 10.3125 35.1641 10.2188 35.5391 9.97657C36.0547 9.63282 36.2813 9.21875 36.3125 8.5625C36.336 8.09375 36.3125 7.95313 36.1485 7.65625C35.8047 7 34.9532 6.5625 34.2813 6.69532C33.7188 6.79688 33.0703 7.29688 32.9297 7.72657C32.8828 7.89063 32.836 7.89063 30.461 7.89063C29.1328 7.89063 28.0469 7.86719 28.0469 7.83594C28.0469 7.80469 28.1407 7.49219 28.2578 7.14063C28.4453 6.5625 28.4532 6.46094 28.3672 6.17188C28.3125 5.99219 28.1407 5.71094 27.9844 5.53907L27.7032 5.21875L28.836 4.09375L29.9688 2.96875H30.8047C31.6094 2.96875 31.6485 2.97657 31.711 3.14844C31.8282 3.44532 32.1875 3.82813 32.5078 3.99219C33.375 4.42969 34.4063 4.13282 34.8985 3.30469C35.0782 2.99219 35.1172 2.84375 35.1172 2.42188C35.1094 1.375 34.375 0.625004 33.3594 0.625004C32.6953 0.625004 32.0469 1.01563 31.75 1.57813C31.6407 1.79688 31.6328 1.79688 30.7969 1.79688C29.5 1.79688 29.5157 1.78907 28.1094 3.1875L26.8828 4.39844L26.5703 4.11719C26.3985 3.96094 26.1172 3.79688 25.9453 3.74219C25.6563 3.65625 25.5547 3.67188 24.7578 3.92969L23.8985 4.20313L23.375 3.99219L22.8516 3.78125L22.4219 2.96094C21.8282 1.83594 21.75 1.79688 20 1.79688C18.25 1.79688 18.1719 1.83594 17.5782 2.96094L17.1485 3.78125L16.625 3.99219L16.1016 4.20313L15.2422 3.92969C14.4453 3.67188 14.3438 3.65625 14.0547 3.74219C13.8828 3.79688 13.6016 3.96094 13.4297 4.11719L13.1172 4.39844L11.8907 3.1875C10.4844 1.78907 10.5 1.79688 9.20316 1.79688C8.36722 1.79688 8.35941 1.79688 8.25003 1.57813C8.08597 1.27344 7.6641 0.882816 7.32816 0.750004C6.9766 0.601566 6.29691 0.593754 5.9766 0.734379ZM7.07035 1.99219C7.43753 2.35157 7.25003 2.91407 6.74222 3.01563C6.53128 3.05469 6.45316 3.02344 6.25003 2.82813C6.10941 2.6875 6.01566 2.50782 6.01566 2.38282C6.01566 2.10157 6.33597 1.79688 6.64066 1.79688C6.7891 1.79688 6.95316 1.86719 7.07035 1.99219ZM33.7422 1.92969C33.8282 2.00782 33.9297 2.17969 33.9532 2.32032C33.9922 2.53125 33.961 2.60938 33.7578 2.82032C33.5469 3.02344 33.4688 3.05469 33.2578 3.01563C32.75 2.91407 32.5625 2.35157 32.9297 1.99219C33.1563 1.75782 33.5078 1.73438 33.7422 1.92969ZM21.5625 3.82032C22.0313 4.70313 22.0313 4.70313 23.1016 5.15625C23.4063 5.28125 23.75 5.39063 23.8594 5.39063C23.9688 5.39063 24.3907 5.28125 24.7891 5.15625C25.1953 5.02344 25.5703 4.92188 25.6328 4.92188C25.6953 4.92188 26.086 5.26563 26.5078 5.6875L27.2657 6.45313L26.9922 7.26563C26.8438 7.71094 26.7188 8.16407 26.7188 8.26563C26.7188 8.44532 27.0547 9.3125 27.336 9.84375C27.4453 10.0625 27.6407 10.2031 28.2891 10.5469C29.086 10.9688 29.1016 10.9844 29.1016 11.25V11.5234H26.6485H24.1953L24.0938 11.0938C23.6407 9.30469 22.125 8.04688 20.2578 7.91407C19.7344 7.875 19.5782 7.89063 19.4141 8C19.1563 8.17188 19.0625 8.41407 19.1563 8.69532C19.2578 8.98438 19.3828 9.03125 20.1328 9.08594C21.3125 9.16407 22.2578 9.78907 22.7422 10.8047C23.1328 11.6328 23.3985 11.5625 20 11.5625C17.2266 11.5625 17.0313 11.5547 17.0313 11.4219C17.0313 11.2891 17.3594 10.6016 17.6719 10.0781C17.8203 9.82032 17.8282 9.77344 17.7266 9.57032C17.6016 9.30469 17.3047 9.17188 17.0078 9.25C16.6328 9.34375 16.1328 10.2656 15.8125 11.4688C15.7891 11.5469 15.2578 11.5625 13.3438 11.5469L10.8985 11.5234V11.25C10.8985 10.9844 10.9141 10.9688 11.711 10.5469C12.3594 10.2031 12.5547 10.0625 12.6641 9.84375C12.9453 9.3125 13.2813 8.44532 13.2813 8.26563C13.2813 8.16407 13.1563 7.71094 13.0078 7.26563L12.7344 6.45313L13.4922 5.6875C13.9141 5.26563 14.3047 4.92188 14.3672 4.92188C14.4297 4.92188 14.8047 5.02344 15.211 5.15625C15.6094 5.28125 16.0313 5.39063 16.1407 5.39063C16.25 5.39063 16.5938 5.28125 16.8985 5.15625C17.9766 4.70313 17.9844 4.70313 18.3282 4.02344C18.5078 3.67969 18.711 3.30469 18.7813 3.17969L18.8985 2.96094L20.0157 2.98438L21.1328 3.00782L21.5625 3.82032ZM5.90628 8.0625C6.10941 8.28125 6.08597 8.73438 5.86722 8.91407C5.46878 9.24219 4.84378 9 4.84378 8.52344C4.84378 8.17969 4.92191 8.03907 5.17191 7.92969C5.46097 7.8125 5.7266 7.85938 5.90628 8.0625ZM35.0782 8.125C35.2032 8.36719 35.1641 8.74219 35 8.90625C34.8047 9.10157 34.375 9.10938 34.1328 8.91407C33.7891 8.63282 33.961 7.94532 34.4063 7.875C34.6485 7.83594 34.9922 7.96094 35.0782 8.125ZM35.75 12.9297C35.9688 13.0547 36.1328 13.2344 36.2422 13.4609C36.4063 13.7969 36.4063 13.7969 36.4063 24.2031V34.6094H30.5H24.5938L24.0703 35.1094C23.7891 35.3906 23.4532 35.6484 23.336 35.6953C23.0313 35.8125 16.9688 35.8125 16.6641 35.6953C16.5469 35.6484 16.211 35.3906 15.9297 35.1094L15.4063 34.6094H11.9375C8.7266 34.6094 8.45316 34.6172 8.33597 34.7422C8.10941 35 8.09378 35.2734 8.30472 35.5156L8.50003 35.7422L11.7266 35.7656L14.9532 35.7891L15.3828 36.2031C15.6719 36.4766 15.9766 36.6719 16.2735 36.7813C16.711 36.9453 16.836 36.9531 20 36.9531C23.1641 36.9531 23.2891 36.9453 23.7266 36.7813C24.0235 36.6719 24.3282 36.4766 24.6172 36.1953L25.0547 35.7813H31.9375H38.8282V36.4453C38.8282 36.8438 38.7813 37.2188 38.7188 37.3672C38.5938 37.6719 38.2422 38.0078 37.9453 38.1172C37.6328 38.2344 2.36722 38.2344 2.05472 38.1172C1.75785 38.0078 1.40628 37.6719 1.28128 37.3672C1.21878 37.2188 1.17191 36.8438 1.17191 36.4531V35.7891L3.70316 35.7656C6.06253 35.7422 6.24222 35.7344 6.39847 35.5938C6.60941 35.3984 6.61722 34.9766 6.40628 34.7656C6.26566 34.625 6.14847 34.6094 4.92191 34.6094H3.59378V24.2031C3.59378 13.8125 3.59378 13.7969 3.75785 13.4609C3.85941 13.2422 4.03128 13.0547 4.24222 12.9297L4.57035 12.7344H19.9922H35.4141L35.75 12.9297Z" fill="#EDA708"/>
<path d="M5.00781 14.1875C4.84375 14.3984 4.84375 14.4062 4.84375 23.6016C4.84375 30.3125 4.86719 32.8594 4.92969 33C4.98438 33.1094 5.125 33.2344 5.25781 33.2812C5.58594 33.3906 34.4141 33.3906 34.7422 33.2812C34.875 33.2344 35.0156 33.1094 35.0703 33C35.1328 32.8594 35.1563 30.3125 35.1563 23.6016C35.1563 14.4062 35.1563 14.3984 34.9922 14.1875L34.8359 13.9844H20H5.16406L5.00781 14.1875ZM33.9844 23.6719V32.1875H20H6.01563V23.6719V15.1562H20H33.9844V23.6719Z" fill="#EDA708"/>
<path d="M14.414 16.5547C14.2421 16.6328 13.9921 16.8203 13.8515 16.9609C13.3359 17.5078 13.3593 17.2031 13.3593 23.6641V29.5156L13.578 29.9297C13.8905 30.5312 14.4452 30.8594 15.1327 30.8594C15.7343 30.8594 16.1171 30.6875 16.5077 30.2344C16.6562 30.0625 16.8202 29.7656 16.8671 29.5859C16.9374 29.3438 16.953 27.6875 16.9374 23.4766C16.914 17.7266 16.914 17.6953 16.7421 17.3828C16.2812 16.5156 15.2655 16.1562 14.414 16.5547ZM15.5859 17.7734L15.7812 17.9609V23.6172C15.7812 29.2266 15.7812 29.2812 15.6171 29.4844C15.4062 29.75 14.9765 29.7656 14.7109 29.5156L14.5312 29.3516V23.6719C14.5312 18.0391 14.5312 17.9844 14.6952 17.7812C14.914 17.5078 15.3202 17.5 15.5859 17.7734Z" fill="#EDA708"/>
<path d="M19.2577 16.5547C18.3359 16.9766 17.953 18.0625 18.4062 18.9688C18.7734 19.7109 19.3749 20 20.5624 20H21.2499V24.7578V29.5156L21.4687 29.9219C21.5937 30.1641 21.8124 30.4297 22.0155 30.5703C22.3046 30.7813 22.4374 30.8203 22.9218 30.8438C23.3827 30.8672 23.5546 30.8438 23.8046 30.7109C24.2265 30.5 24.6484 29.9922 24.7577 29.5703C24.8124 29.3516 24.8437 28.1875 24.8437 26.3281V23.4297L24.6484 23.2422C24.5468 23.1328 24.3671 23.0469 24.2577 23.0469C24.1484 23.0469 23.9687 23.1328 23.8671 23.2422L23.6718 23.4297V26.3516C23.6718 29.1953 23.664 29.2813 23.5077 29.4844C23.2968 29.7578 22.8359 29.7656 22.5937 29.5078L22.4218 29.3281V24.2813C22.4218 19.2969 22.4218 19.2344 22.2577 19.0313C22.1015 18.8281 22.0937 18.8281 21.0155 18.8281C19.8515 18.8281 19.6015 18.7734 19.4609 18.4609C19.328 18.1719 19.3593 17.9766 19.5702 17.7734L19.7577 17.5781H23.0077C24.9374 17.5781 26.3202 17.6094 26.3984 17.6563C26.6405 17.7813 26.7499 18.1563 26.6249 18.4063C26.4609 18.7656 26.2343 18.8281 25.0702 18.8281C23.6562 18.8281 23.6718 18.8125 23.6718 20.1719C23.6718 21.1484 23.6718 21.1641 23.8749 21.3203C24.1484 21.5391 24.414 21.5234 24.6484 21.2891C24.8202 21.125 24.8437 21.0313 24.8437 20.5625V20.0156L25.6874 19.9844C26.3437 19.9609 26.5937 19.9219 26.8359 19.7891C27.4921 19.4453 27.8359 18.875 27.8437 18.1484C27.8437 17.75 27.8046 17.6016 27.6093 17.2969C27.4843 17.0859 27.2265 16.8125 27.039 16.6797L26.703 16.4453L23.1405 16.4297C19.8202 16.4063 19.5468 16.4141 19.2577 16.5547Z" fill="#EDA708"/>
</g>
<rect x="0.5" y="0.5" width="39" height="39" stroke="#EDA708"/>
<defs>
<clipPath id="clip0_9_56">
<rect width="40" height="40" fill="white"/>
</clipPath>
</defs>
</svg>
