<svg width="73" height="73" viewBox="0 0 73 73" fill="none" xmlns="http://www.w3.org/2000/svg">
<g clip-path="url(#clip0_11_132)">
<path d="M6.44453 0.285154C4.89043 0.698631 3.77832 1.34023 2.56641 2.5664C1.32598 3.79258 0.698633 4.89043 0.285156 6.50156C0 7.58515 0 8.18398 0 36.5C0 64.816 0 65.4148 0.285156 66.4984C0.698633 68.1096 1.32598 69.2074 2.56641 70.4336C3.79258 71.674 4.89043 72.3014 6.50156 72.7148C7.58516 73 8.18398 73 36.5 73C64.816 73 65.4148 73 66.4984 72.7148C68.1096 72.3014 69.2074 71.674 70.4336 70.4336C71.674 69.2074 72.3014 68.1096 72.7148 66.4984C73 65.4148 73 64.816 73 36.5C73 8.18398 73 7.58515 72.7148 6.50156C72.3014 4.89043 71.674 3.79258 70.4336 2.5664C69.2074 1.32597 68.1096 0.698631 66.4984 0.285154C65.4148 -1.90735e-06 64.8303 -1.90735e-06 36.443 0.0142559C8.39785 0.0142559 7.45684 0.0285137 6.44453 0.285154ZM65.9139 6.1166C66.2133 6.30195 66.6268 6.71543 66.8406 7.0291L67.2256 7.61367V36.4857V65.3721L66.8834 65.9139C66.698 66.2133 66.2846 66.6268 65.9709 66.8406L65.3863 67.2256H36.5H7.61367L7.0291 66.8406C6.71543 66.6268 6.30195 66.2133 6.1166 65.9139L5.77441 65.3721L5.73164 36.7994C5.71738 16.9811 5.7459 8.06992 5.8457 7.6707C6.03105 7.00058 6.94355 6.04531 7.58516 5.85996C7.88457 5.77441 18.8916 5.73164 36.7139 5.7459L65.3721 5.77441L65.9139 6.1166Z" fill="#EDA708"/>
<path d="M16.425 12.1904C15.3699 12.4898 14.5572 12.9889 13.7303 13.8728C12.4471 15.2273 11.9195 16.9668 12.2189 18.749C12.4328 19.9752 12.8748 20.8734 13.7303 21.7717C15.0135 23.1262 16.6246 23.7678 18.3926 23.6252C19.8184 23.5111 20.8449 23.0549 21.8715 22.0996C23.8391 20.2461 24.3523 17.5228 23.1547 15.156C22.6129 14.0867 21.2156 12.8035 20.1463 12.4043C19.0769 12.0051 17.4373 11.9053 16.425 12.1904Z" fill="#EDA708"/>
<path d="M46.1953 27.6744C43.4293 28.0736 40.6062 29.7133 39.2803 31.6951L38.7812 32.4365V30.2551V28.0879H33.9336H29.0859V44.1992V60.3105H33.9193H38.767L38.824 51.0002C38.8811 40.8914 38.8811 40.9199 39.708 39.152C40.7346 36.9848 42.7449 35.9297 45.4967 36.115C47.4357 36.2434 48.7332 37.0846 49.4746 38.71C50.216 40.3068 50.2303 40.4637 50.2873 50.715L50.3443 60.3105H55.2633H60.1822L60.1252 49.3605C60.0824 42.2459 59.9969 38.0969 59.8971 37.498C58.8277 31.2531 56.2043 28.4586 50.6865 27.6602C49.5316 27.5033 47.3217 27.5033 46.1953 27.6744Z" fill="#EDA708"/>
<path d="M12.832 44.1992V60.3105H17.8223H22.8125V44.1992V28.0879H17.8223H12.832V44.1992Z" fill="#EDA708"/>
</g>
<defs>
<clipPath id="clip0_11_132">
<rect width="73" height="73" fill="white"/>
</clipPath>
</defs>
</svg>
