<svg width="40" height="40" viewBox="0 0 40 40" fill="none" xmlns="http://www.w3.org/2000/svg">
<g clip-path="url(#clip0_9_62)">
<path d="M2.65621 0.0859413C1.72652 0.265629 0.742144 1.04688 0.343706 1.91407C-0.507856 3.75782 0.390581 5.82032 2.33589 6.5C2.67183 6.61719 2.92964 6.64844 3.46089 6.625L4.15621 6.60157L5.04683 8.46875C5.53902 9.5 5.93746 10.3672 5.93746 10.3984C5.93746 10.4375 5.72652 10.6016 5.47652 10.7813C3.33589 12.2344 2.03902 14.6719 2.03121 17.2656C2.03121 19.8594 3.05464 21.9453 5.21089 23.75L5.53902 24.0234L4.93746 25.0938C4.49214 25.8984 4.30464 26.1563 4.21871 26.125C4.15621 26.0938 3.85152 26.0547 3.55464 26.0391C1.83589 25.9141 0.351519 27.1094 0.0624564 28.8516C-0.156294 30.1875 0.585894 31.6484 1.79683 32.2656C3.64839 33.2031 5.83589 32.3047 6.48433 30.3438C6.62496 29.9219 6.65621 29.7031 6.62496 29.1484C6.58589 28.3594 6.36714 27.8125 5.85152 27.2188C5.68746 27.0234 5.54683 26.8359 5.54683 26.7891C5.54683 26.6641 6.71089 24.6484 6.77339 24.6641C6.80464 24.6719 7.09371 24.7734 7.40621 24.875C8.81246 25.3672 10.5625 25.4453 11.9531 25.0859C12.6718 24.8984 13.8437 24.375 14.3984 23.9922C14.5859 23.8672 14.7734 23.75 14.8125 23.7344C14.8984 23.7031 17.4218 26.4375 17.4218 26.5547C17.4218 26.6016 17.3203 26.75 17.1953 26.8906C15.9687 28.3047 15.2031 30.6641 15.3593 32.5781L15.414 33.1875L15.1093 33.2734C14.625 33.3984 12.4531 33.9063 12.3984 33.9063C12.375 33.9063 12.2265 33.7109 12.0625 33.4766C11.4843 32.5938 10.6093 32.1016 9.54683 32.0469C8.31246 31.9844 7.38277 32.4141 6.66402 33.3906C5.19527 35.3828 6.37496 38.1953 8.85152 38.6094C10.6171 38.8984 12.3125 37.6406 12.6015 35.8125C12.6875 35.2422 12.6953 35.2266 12.9687 35.1563C13.6171 34.9844 15.5703 34.5313 15.664 34.5313C15.7187 34.5313 15.8125 34.6641 15.8593 34.8281C15.914 34.9844 16.0937 35.3828 16.2656 35.7031C18.2187 39.375 22.5234 40.9453 26.3593 39.3828C28.7109 38.4219 30.4843 36.3594 31.1171 33.8281C31.2421 33.3125 31.2812 32.9219 31.2812 32.0703C31.2812 30.6875 31.0625 29.6328 30.5703 28.6406C30.4609 28.4297 30.4062 28.2344 30.4453 28.2031C30.5234 28.125 33.9453 25.8906 34.1484 25.7734C34.2656 25.7109 34.3671 25.75 34.6562 25.9688C35.1875 26.375 35.789 26.5859 36.539 26.625C37.5312 26.6719 38.3281 26.3516 39.0468 25.625C40.914 23.7266 39.8203 20.5 37.1562 20.0625C35.5546 19.7969 34.0156 20.7813 33.4765 22.4063C33.3437 22.8125 33.3437 23.0234 33.4531 24.3594C33.4765 24.6094 33.4531 24.625 31.5625 25.8594L29.6484 27.1016L29.2578 26.6641C28.7734 26.1172 27.8906 25.4063 27.2265 25.0391C26.9453 24.8828 26.7187 24.7188 26.7187 24.6719C26.7187 24.5703 29.8515 15.8359 29.9218 15.7656C29.9453 15.7344 30.0859 15.7422 30.2343 15.7813C30.3828 15.8281 30.8593 15.8984 31.289 15.9453C33.6328 16.1875 36.0859 15.2734 37.75 13.5313C40.7109 10.4219 40.7421 5.66407 37.8125 2.54688C34.7812 -0.687496 29.7968 -0.843746 26.5312 2.1875C26.0703 2.60938 25.3515 3.54688 25 4.16407C24.8125 4.49219 24.7109 4.60157 24.6171 4.57032C24.5468 4.54688 24.0859 4.38282 23.5937 4.19532L22.6953 3.85938L22.6796 3.51563C22.6406 2.875 22.4843 2.23438 22.2656 1.79688C21.6406 0.578129 20.164 -0.171871 18.8281 0.0625038C17.4921 0.304691 16.4531 1.23438 16.125 2.5C15.7109 4.09375 16.5703 5.79688 18.1093 6.42188C18.4765 6.57032 18.7031 6.60157 19.375 6.60157C20.1484 6.60157 20.2343 6.58594 20.7109 6.35157C21.2109 6.10157 21.7968 5.61719 22.0468 5.25L22.164 5.07813L23.2109 5.46875C23.7812 5.6875 24.2578 5.875 24.2734 5.89063C24.289 5.90625 24.2421 6.15625 24.164 6.45313C23.9609 7.27344 23.9843 8.89844 24.2109 9.78907C24.3125 10.1719 24.375 10.4922 24.3593 10.5078C24.3046 10.5547 17.0859 13.6016 17.0703 13.5781C17.0625 13.5625 16.8906 13.2969 16.6875 12.9922C15.1953 10.7109 12.7187 9.36719 9.99996 9.36719C9.10933 9.36719 8.22652 9.5 7.56246 9.73438C7.38277 9.79688 7.21089 9.82032 7.17964 9.78907C7.10933 9.71875 5.39058 6.11719 5.39058 6.04688C5.39058 6.01563 5.55464 5.82032 5.75777 5.59375C6.31246 4.97657 6.58589 4.32813 6.62496 3.50782C6.64839 3 6.62496 2.72657 6.52339 2.41407C5.96089 0.710941 4.37496 -0.249996 2.65621 0.0859413ZM4.19527 1.55469C4.87496 1.89844 5.24214 2.46875 5.29683 3.25C5.35152 4.0625 4.93746 4.75 4.17964 5.125C3.21871 5.58594 2.05464 5.17969 1.55464 4.20313C0.874956 2.875 1.96089 1.25 3.44527 1.35938C3.67964 1.375 4.02339 1.46094 4.19527 1.55469ZM20.2031 1.54688C21.4218 2.17188 21.6875 3.77344 20.7265 4.73438C20.289 5.17188 20.0312 5.27344 19.3359 5.27344C18.7968 5.27344 18.664 5.24219 18.3515 5.0625C16.8203 4.16407 17.1015 1.96094 18.8281 1.39844C19.1406 1.29688 19.8671 1.375 20.2031 1.54688ZM33.6562 1.55469C35.6093 2.07032 37.1875 3.39844 38.039 5.25C38.5 6.25 38.6328 6.89063 38.625 8.08594C38.6171 8.95313 38.5859 9.20313 38.4062 9.80469C38.1718 10.5859 37.7109 11.5156 37.3125 12.0156L37.039 12.3516L36.8046 11.8984C36.3828 11.0547 35.5546 10.2344 34.7109 9.82032L34.3828 9.66407L34.6015 9.38282C36.4453 7.03907 34.4375 3.60157 31.5078 4.0625C29.7812 4.33594 28.539 5.91407 28.6953 7.61719C28.7578 8.23438 28.9218 8.67188 29.289 9.21094L29.5937 9.65625L29.1796 9.875C28.3984 10.2813 27.625 11.0625 27.2031 11.8516C27.0859 12.0781 26.9609 12.2578 26.914 12.2422C26.7656 12.1953 26.1015 11.1406 25.8593 10.5625C25.5156 9.74219 25.375 9 25.375 8.00782C25.3671 6.99219 25.5156 6.24219 25.875 5.40625C26.7968 3.27344 28.6406 1.82813 30.9921 1.40625C31.5625 1.29688 33.0078 1.38282 33.6562 1.55469ZM32.8125 5.51563C34.0156 6.02344 34.3593 7.73438 33.4531 8.70313C32.6875 9.52344 31.1796 9.47657 30.4687 8.60938C29.6953 7.67188 29.8984 6.42969 30.9609 5.625C31.3671 5.32032 32.2187 5.27344 32.8125 5.51563ZM11.3593 10.8203C13.7187 11.3047 15.6093 13.0313 16.375 15.3906C16.5703 15.9922 16.5937 16.1641 16.5937 17.2656C16.6015 18.3047 16.5781 18.5625 16.4218 19.0938C16.2109 19.8281 15.6484 20.9531 15.2812 21.375L15.0234 21.6797L14.7656 21.1719C14.4453 20.5234 13.4218 19.4922 12.8359 19.2266C12.6093 19.1172 12.4218 19.0078 12.4218 18.9766C12.4218 18.9453 12.5078 18.8125 12.6171 18.6875C12.7265 18.5547 12.914 18.2422 13.0312 17.9922C13.2187 17.5859 13.2421 17.4531 13.2421 16.6797C13.2421 15.8359 13.2343 15.7969 12.9531 15.2266C12.0937 13.4922 10.0078 12.8438 8.35152 13.7813C7.17964 14.4531 6.49214 15.875 6.71871 17.1797C6.82808 17.8047 6.95308 18.1172 7.30464 18.6016C7.60933 19.0313 7.62496 19.0625 7.46871 19.0625C7.25777 19.0625 6.17183 19.8516 5.81246 20.2734C5.61714 20.5078 5.34371 20.9141 5.20308 21.1719L4.94527 21.6563L4.69527 21.3516C4.33589 20.9141 3.78121 19.8047 3.57808 19.0938C3.42183 18.5625 3.39839 18.3047 3.40621 17.2656C3.40621 16.1641 3.42964 15.9922 3.62496 15.3906C4.38277 13.0547 6.26558 11.3281 8.59371 10.8281C9.27339 10.6797 10.6562 10.6719 11.3593 10.8203ZM33.9375 10.9297C34.2656 11.0625 34.5468 11.2656 34.9218 11.6328C35.4531 12.1563 35.6953 12.5313 35.8437 13.0703C35.9218 13.3594 35.9218 13.3594 35.5781 13.6016C34.5937 14.2734 33.3437 14.6406 31.9921 14.6328C30.7109 14.6328 29.7031 14.3672 28.6562 13.7422C28.0312 13.375 28.0156 13.3125 28.3515 12.6016C28.75 11.7578 29.4218 11.1719 30.3515 10.8438C30.6796 10.7266 30.9687 10.7031 32.1093 10.7266C33.3359 10.7422 33.5234 10.7656 33.9375 10.9297ZM25.3515 12.4219C26.0156 13.4375 27.3671 14.6406 28.3984 15.1328C28.5937 15.2266 28.664 15.3047 28.625 15.3828C28.6015 15.4531 27.8984 17.3906 27.0703 19.6875C26.2421 21.9844 25.5234 23.9609 25.4843 24.0703L25.3984 24.2813L24.9062 24.1797C22.8906 23.7656 20.7812 24.1563 19.0781 25.2578C18.7656 25.4609 18.4921 25.625 18.4765 25.625C18.4609 25.625 17.8593 24.9844 17.1484 24.2109L15.8593 22.7891L16.0546 22.5469C16.4687 22.0469 17.1015 21.0313 17.3359 20.4844C17.7578 19.5313 17.9062 18.8281 17.9453 17.6172C17.9843 16.5938 17.9062 15.9063 17.6484 14.9375C17.625 14.8594 18.7578 14.3438 21.25 13.2813C23.25 12.4375 24.9062 11.7578 24.9296 11.7891C24.9531 11.8125 25.1484 12.1016 25.3515 12.4219ZM10.7812 14.8516C11.25 15.0625 11.5468 15.3516 11.7656 15.8203C12.2968 16.9297 11.664 18.2891 10.4921 18.5859C10.0546 18.7031 9.86714 18.6953 9.38277 18.5469C8.33589 18.2422 7.75777 17.0547 8.11714 15.9844C8.46089 14.9688 9.79683 14.4063 10.7812 14.8516ZM11.4296 20.1172C12.0937 20.2891 12.4765 20.5156 12.9843 21.0234C13.4453 21.4766 13.7968 22.1016 13.8437 22.5313C13.8671 22.7344 13.8203 22.7813 13.2265 23.125C12.0781 23.7813 10.9921 24.0391 9.60933 23.9609C8.63277 23.8984 8.07027 23.7656 7.20308 23.3594C6.40621 22.9844 6.09371 22.7656 6.09371 22.5859C6.09371 22.5078 6.21871 22.1953 6.36714 21.8984C6.81246 21.0078 7.62496 20.3359 8.55464 20.1094C9.12496 19.9688 10.8828 19.9766 11.4296 20.1172ZM37.375 21.4844C38.4531 21.8906 38.9609 23.1875 38.4453 24.2031C38.1015 24.875 37.5312 25.2422 36.75 25.2969C35.9453 25.3516 35.2578 24.9453 34.8906 24.2031C34.3515 23.125 34.8906 21.8594 36.0703 21.4375C36.4921 21.2891 36.8828 21.3047 37.375 21.4844ZM25 25.5547C26.9296 26.0469 28.5156 27.3828 29.3671 29.2344C29.8281 30.2266 29.9609 30.875 29.9531 32.0703C29.9531 33.2344 29.789 33.9531 29.3281 34.8672C29.0859 35.3438 28.4609 36.3281 28.3906 36.3281C28.3828 36.3281 28.25 36.1094 28.1171 35.8438C27.7734 35.1953 26.7578 34.1797 26.1484 33.8828L25.7031 33.6641L25.9687 33.3125C26.4296 32.7109 26.5937 32.1797 26.5937 31.3281C26.5937 30.4375 26.4062 29.8828 25.9062 29.2734C24.8046 27.9063 22.8984 27.6328 21.4296 28.6172C20.9453 28.9453 20.4531 29.5625 20.2265 30.1328C20.0781 30.4922 20.0468 30.7344 20.0468 31.3281C20.0468 32.1797 20.2109 32.7109 20.6718 33.3125L20.9375 33.6641L20.4921 33.8828C19.8984 34.1719 18.8593 35.1953 18.5468 35.7969C18.4218 36.0469 18.289 36.2422 18.2421 36.2266C18.0859 36.1797 17.4218 35.125 17.1875 34.5625C16.5234 32.9688 16.5234 31.0547 17.1875 29.4453C17.8437 27.8594 19.2812 26.4375 20.8515 25.8203C21.3281 25.6406 22.1953 25.4219 22.7343 25.3594C23.2343 25.3047 24.4062 25.4063 25 25.5547ZM3.97652 27.4609C4.43746 27.6172 4.82027 27.9375 5.06246 28.3516C5.24214 28.6641 5.27339 28.7969 5.27339 29.3359C5.27339 30.0313 5.17183 30.2891 4.73433 30.7266C3.77339 31.6875 2.18746 31.4297 1.53902 30.2031C1.30464 29.7578 1.30464 28.9141 1.53902 28.4766C2.01558 27.5625 3.05464 27.1328 3.97652 27.4609ZM24.2734 29.6016C24.9453 29.9453 25.2734 30.5078 25.2734 31.3281C25.2734 32.0156 25.1015 32.3984 24.6406 32.8125C24.2343 33.1641 23.8671 33.2969 23.3203 33.2969C22.7578 33.2969 22.3906 33.1563 21.9687 32.7813C20.9609 31.8672 21.1953 30.1875 22.4062 29.5703C22.9765 29.2891 23.6796 29.2969 24.2734 29.6016ZM10.2187 33.5625C11.8046 34.3516 11.6093 36.7188 9.91402 37.2188C9.39839 37.375 9.27339 37.375 8.75777 37.2188C7.98433 36.9922 7.34371 36.1641 7.34371 35.3828C7.34371 33.875 8.88277 32.8984 10.2187 33.5625ZM25.3125 34.9688C26.2187 35.3984 26.9296 36.2188 27.1718 37.1172L27.25 37.4063L26.6875 37.7188C25.4296 38.4375 24.7109 38.6328 23.2812 38.625C22.3671 38.6172 22.1328 38.5859 21.539 38.4063C20.4218 38.0703 19.4531 37.5234 19.4531 37.2344C19.4531 36.9531 19.8984 36.1172 20.2421 35.7422C20.6171 35.3359 21.0937 35.0313 21.6796 34.8281C22.0078 34.7109 22.289 34.6875 23.4375 34.7031C24.789 34.7266 24.8125 34.7266 25.3125 34.9688Z" fill="#EDA708"/>
</g>
<defs>
<clipPath id="clip0_9_62">
<rect width="40" height="40" fill="white"/>
</clipPath>
</defs>
</svg>
