<svg width="40" height="40" viewBox="0 0 40 40" fill="none" xmlns="http://www.w3.org/2000/svg">
<g clip-path="url(#clip0_11_116)">
<path d="M5.9374 0.109344C5.23427 0.296844 4.51552 0.921844 4.20302 1.62497C3.94521 2.18747 3.96084 3.17184 4.23427 3.75778C4.48427 4.29684 4.9374 4.76559 5.48427 5.05466C5.85146 5.24997 5.98427 5.27341 6.64052 5.27341C7.29677 5.27341 7.4374 5.24997 7.82802 5.05466C8.35927 4.79684 8.91396 4.20309 9.10927 3.71091L9.24209 3.35934H11.6093H13.9765L13.9999 5.71091L14.0233 8.06247L14.2421 8.24997C14.5311 8.49216 14.6483 8.48434 15.4999 8.17184C15.8983 8.02341 16.5311 7.82028 16.914 7.72653C17.6952 7.53122 17.9686 7.33591 17.9686 6.96091C17.9686 6.62497 17.8983 6.49216 17.6405 6.35934C17.4296 6.24997 17.3515 6.24997 16.8202 6.36716C16.4921 6.43747 16.039 6.56247 15.7968 6.64841C15.5624 6.72653 15.3593 6.79684 15.3436 6.79684C15.328 6.79684 15.3124 5.90622 15.2968 4.81247C15.2733 2.60153 15.2733 2.60153 14.6874 2.20309C14.4296 2.03122 14.3983 2.03122 11.8358 2.03122H9.24209L9.14834 1.73434C8.73427 0.492157 7.26552 -0.250031 5.9374 0.109344ZM7.23427 1.47653C7.69521 1.68747 7.91396 2.03903 7.95302 2.61716C7.97646 3.00778 7.95302 3.12497 7.79677 3.35153C7.55459 3.71091 7.28115 3.89841 6.9374 3.95309C6.49209 4.03122 6.10927 3.92184 5.78896 3.62497C5.07021 2.97653 5.24209 1.87497 6.1249 1.47653C6.53115 1.29684 6.82802 1.29684 7.23427 1.47653Z" fill="#EDA708"/>
<path d="M19.6641 0.0859218C19.3203 0.289047 19.2969 0.531234 19.2969 3.67186C19.2969 6.91405 19.3203 7.10936 19.7266 7.26561C19.8438 7.31249 20.1484 7.34374 20.4141 7.34374C20.6797 7.35155 21.1484 7.3828 21.4453 7.42186C22.8438 7.61717 22.8828 7.61717 23.0781 7.42967C23.3359 7.18749 23.3906 6.92186 23.2422 6.6328C23.0625 6.29686 23 6.28123 21.0391 6.04686L20.7031 6.0078V3.35155C20.7031 0.531234 20.6719 0.273422 20.3281 0.0859218C20.125 -0.0234532 19.8438 -0.0234532 19.6641 0.0859218Z" fill="#EDA708"/>
<path d="M32.5236 0.140624C31.7111 0.429686 31.0861 1.03125 30.8517 1.73437L30.7579 2.03125H28.1642C25.6017 2.03125 25.5704 2.03125 25.3126 2.20312C25.172 2.30469 24.9767 2.48437 24.8907 2.60156C24.7345 2.8125 24.7267 2.92969 24.7032 5.39844C24.6876 7.08594 24.7111 8.02344 24.7657 8.11719C24.8048 8.20312 25.1954 8.44531 25.6251 8.66406C26.6564 9.17187 27.5157 9.75781 28.5001 10.625C29.1642 11.1953 29.3595 11.3281 29.5626 11.3281C30.0236 11.3281 30.3361 10.8125 30.1173 10.3984C29.8361 9.84375 27.7267 8.22656 26.547 7.64844L26.0157 7.39062V5.375V3.35937H28.3907H30.7579L30.8907 3.71094C31.0861 4.20312 31.6407 4.79687 32.172 5.05469C32.5626 5.25 32.7032 5.27344 33.3595 5.27344C34.0157 5.27344 34.1486 5.25 34.5157 5.05469C35.0626 4.76562 35.5157 4.29687 35.7657 3.75781C35.9376 3.39062 35.9767 3.21094 35.9689 2.65625C35.9689 2.09375 35.9376 1.92187 35.7579 1.55469C35.5079 1.03125 34.9064 0.445311 34.4064 0.218749C33.8907 -0.00781385 33.0392 -0.0468764 32.5236 0.140624ZM33.8751 1.47656C34.7579 1.875 34.9298 2.97656 34.2111 3.625C33.8907 3.92187 33.5079 4.03125 33.0626 3.95312C32.7189 3.89844 32.4454 3.71094 32.2032 3.35156C32.047 3.125 32.0236 3.00781 32.047 2.61719C32.0861 2.03906 32.3048 1.6875 32.7657 1.47656C33.172 1.29687 33.4689 1.29687 33.8751 1.47656Z" fill="#EDA708"/>
<path d="M11.6016 8.82033C10.7031 9.37502 8.99219 11.2031 8.28907 12.3594L8.10938 12.6563H6.68751H5.26563L5.05469 12.1953C4.63282 11.2735 3.71094 10.7031 2.65626 10.7031C1.59376 10.7031 0.765632 11.2188 0.296882 12.1719C0.0625067 12.6406 0.0390692 12.7578 0.0468817 13.3594C0.0546942 14.1641 0.218757 14.586 0.742194 15.1485C1.45313 15.9063 2.57813 16.1719 3.59376 15.8281C4.14844 15.6328 4.90626 14.8985 5.11719 14.3516L5.25782 13.9844H6.92969C7.91407 13.9844 8.66407 13.9531 8.75001 13.9063C8.83594 13.8594 9.14844 13.461 9.44532 13.0235C10.1875 11.9375 10.9297 11.0938 11.7656 10.3906C12.1484 10.0703 12.5 9.75002 12.5547 9.68752C12.7266 9.48439 12.6719 9.10158 12.4531 8.87502C12.2109 8.63283 11.9297 8.61721 11.6016 8.82033ZM3.35938 12.2031C4.07813 12.6953 4.19532 13.586 3.62501 14.211C2.53907 15.4219 0.664069 13.9219 1.58594 12.5781C1.95313 12.0313 2.83594 11.8516 3.35938 12.2031Z" fill="#EDA708"/>
<path d="M18.5938 8.75C16.0547 9.10156 13.8516 10.1875 12.0469 11.9688C10.4453 13.5469 9.375 15.5078 8.89062 17.7578C8.64062 18.9141 8.64062 21.1016 8.89062 22.2422C9.875 26.7656 13.2422 30.1328 17.7578 31.1094C18.9062 31.3516 21.0938 31.3516 22.2422 31.1094C26.7578 30.1328 30.1328 26.7578 31.1094 22.2422C31.3516 21.0938 31.3516 18.9062 31.1094 17.7578C30.1406 13.2578 26.7422 9.85156 22.2812 8.90625C21.4141 8.71875 19.4219 8.63281 18.5938 8.75ZM22.1094 10.2266C24.6797 10.8125 26.875 12.3125 28.3359 14.4922C29 15.4766 29.5391 16.7812 29.8125 18.0469C30.0156 18.9766 30.0156 21.0234 29.8125 21.9531C29.5391 23.2188 29 24.5234 28.3359 25.5078C27.8984 26.1562 27.7344 26.3516 27.0078 27.0938C25.6797 28.4375 23.9141 29.3906 21.9531 29.8125C21.0234 30.0156 18.9766 30.0156 18.0469 29.8125C14.0469 28.9531 11.0469 25.9531 10.1875 21.9531C9.98438 21.0234 9.98438 18.9766 10.1875 18.0469C10.625 16.0234 11.4922 14.4375 12.9609 12.9609C14.6016 11.3125 16.5781 10.3438 18.9062 10.0469C19.5234 9.96875 21.4609 10.0781 22.1094 10.2266Z" fill="#EDA708"/>
<path d="M18.9141 12.1875C17.7656 12.6094 16.9141 13.625 16.7188 14.8047C16.6797 15.0625 16.6406 15.5781 16.6406 15.9453V16.6172L16.1562 16.75C15.75 16.8594 15.5938 16.9609 15.2734 17.2891C15.0312 17.5391 14.8438 17.8203 14.7812 18.0156C14.7109 18.25 14.6875 19.2734 14.6875 21.7266V25.1172L14.875 25.5078C15.0938 25.9766 15.3906 26.2656 15.8594 26.4766C16.1953 26.6328 16.3594 26.6406 20 26.6406H23.7891L24.1797 26.4531C24.6484 26.2344 24.9375 25.9375 25.1484 25.4688C25.3047 25.1328 25.3125 24.9688 25.3125 21.7266C25.3125 19.2656 25.2891 18.25 25.2188 18.0156C25.1562 17.8203 24.9688 17.5391 24.7266 17.2891C24.4062 16.9609 24.25 16.8594 23.8516 16.75L23.3594 16.6172V15.9062C23.3516 14.1328 22.7188 12.9531 21.4141 12.3281C20.9609 12.1094 20.8047 12.0781 20.1172 12.0547C19.4844 12.0312 19.2578 12.0547 18.9141 12.1875ZM20.6406 13.4531C21.0547 13.5781 21.6719 14.1406 21.8359 14.5469C21.9297 14.7734 21.9922 15.1719 22.0156 15.7578L22.0547 16.6406H20H17.9453L17.9844 15.7578C18.0078 15.1719 18.0703 14.7734 18.1641 14.5469C18.3203 14.1641 18.9375 13.5781 19.3125 13.4609C19.6719 13.3438 20.2734 13.3438 20.6406 13.4531ZM23.7969 18.2266L23.9844 18.4453V21.6875V24.9297L23.7891 25.1172L23.6016 25.3125H20H16.3984L16.2109 25.1172L16.0156 24.9297V21.7031C16.0156 18.2109 16.0156 18.2188 16.4375 18.0469C16.5234 18.0078 18.1797 17.9844 20.1016 17.9922L23.6094 18.0078L23.7969 18.2266Z" fill="#EDA708"/>
<path d="M19.5546 19.3672C18.5233 19.6328 17.8358 20.7031 18.0546 21.7109C18.1718 22.2578 18.5155 22.7578 18.9452 23.0078C19.203 23.1641 19.3202 23.2812 19.3514 23.4531C19.4061 23.7266 19.7186 23.9844 19.9999 23.9844C20.2811 23.9844 20.5936 23.7266 20.6483 23.4531C20.6796 23.2812 20.7968 23.1641 21.0546 23.0078C21.7264 22.6172 22.1171 21.7188 21.9452 20.9375C21.7186 19.8672 20.5702 19.1094 19.5546 19.3672ZM20.4452 20.875C20.6405 21.0547 20.6874 21.4531 20.5468 21.7188C20.4374 21.9297 20.0468 22.0391 19.7655 21.9375C19.4843 21.8438 19.3749 21.6641 19.3749 21.3203C19.3749 20.7734 20.0389 20.4922 20.4452 20.875Z" fill="#EDA708"/>
<path d="M36.3517 10.8672C35.7813 11.0859 35.2032 11.6328 34.9454 12.1875L34.7345 12.6484L33.0001 12.6719C31.4532 12.6953 31.2501 12.7109 31.1095 12.8359C30.797 13.125 30.8204 13.3203 31.2892 14.2891C32.086 15.9141 32.5392 17.5781 32.6329 19.2422C32.6563 19.7266 32.711 20.1953 32.7423 20.2969C32.8829 20.6797 33.1173 20.7031 36.3438 20.7031C39.0392 20.7031 39.3595 20.6875 39.6095 20.5625C39.7657 20.4844 39.9142 20.3359 39.9532 20.2109C40.0626 19.8984 39.9298 19.5938 39.6095 19.4375C39.3673 19.3125 39.0548 19.2969 36.6642 19.2969H33.9923L33.9454 18.8438C33.7579 17.0938 33.3595 15.5938 32.6798 14.0781C32.6485 14.0078 32.8751 13.9844 33.6954 13.9844H34.7423L34.8829 14.3516C35.0938 14.8984 35.8517 15.6328 36.4063 15.8281C36.9532 16.0078 37.7267 16.0156 38.2657 15.8281C38.8126 15.6406 39.461 15.0469 39.7423 14.4688C39.9298 14.0781 39.961 13.9297 39.961 13.3203C39.961 12.6953 39.9376 12.5625 39.7267 12.1641C39.4454 11.5938 38.8751 11.0781 38.3126 10.8672C37.7501 10.6484 36.9063 10.6562 36.3517 10.8672ZM37.9688 12.1797C38.7423 12.5859 38.8829 13.6328 38.2501 14.2656C37.3282 15.1875 35.8282 14.3672 36.047 13.0625C36.1798 12.2266 37.1876 11.7578 37.9688 12.1797Z" fill="#EDA708"/>
<path d="M6.92188 15.3281C6.60938 15.6094 6.22656 17.1406 6.05469 18.8047L6 19.2969H3.33594C0.945312 19.2969 0.632812 19.3125 0.390625 19.4375C-0.125 19.6953 -0.125 20.3047 0.390625 20.5625C0.640625 20.6875 0.960938 20.7031 3.65625 20.7031C6.88281 20.7031 7.11719 20.6797 7.25781 20.2969C7.28906 20.1953 7.34375 19.7266 7.36719 19.2578C7.42188 18.3203 7.57812 17.3594 7.82031 16.5547C8.02344 15.8594 8.01562 15.5859 7.77344 15.3516C7.53125 15.1016 7.17969 15.1016 6.92188 15.3281Z" fill="#EDA708"/>
<path d="M6.55469 22.1094C6.27344 22.2734 6.22656 22.5937 6.39844 23.289C6.53906 23.9062 6.9375 25.0781 7.21875 25.7187L7.34375 26.0156H6.29688H5.25781L5.11719 25.6406C5.02344 25.4062 4.79688 25.1015 4.49219 24.789C4.07812 24.375 3.9375 24.289 3.44531 24.1406C2.82031 23.9453 2.35938 23.9609 1.69531 24.1875C1.1875 24.3594 0.53125 24.9765 0.257812 25.5312C0.0703125 25.9219 0.0390625 26.0703 0.0390625 26.6797C0.0390625 27.3047 0.0625 27.4375 0.273438 27.8359C1.25781 29.7969 4.10938 29.789 5.03906 27.8203L5.26562 27.3515L7 27.3281C8.54688 27.3047 8.75 27.289 8.89062 27.164C9.20312 26.8828 9.17969 26.6875 8.71875 25.7578C8.25 24.7969 7.90625 23.8594 7.69531 22.9844C7.51562 22.25 7.34375 22.0312 6.96875 22.0312C6.8125 22.0312 6.625 22.0703 6.55469 22.1094ZM3.05469 25.3984C3.40625 25.5156 3.80469 25.9062 3.91406 26.2344C4.03125 26.5859 3.96094 27.1562 3.77344 27.414C3.6875 27.5234 3.5 27.7031 3.35156 27.7969C2.97656 28.0625 2.25 28.0156 1.85156 27.7109C1.07031 27.1172 1.23438 25.875 2.14062 25.4609C2.51562 25.289 2.6875 25.2812 3.05469 25.3984Z" fill="#EDA708"/>
<path d="M32.5938 22.2187C32.5156 22.3281 32.3828 22.6718 32.3047 22.9843C32.0938 23.8593 31.75 24.7968 31.2813 25.7578C30.8203 26.6875 30.7969 26.8828 31.1094 27.164C31.25 27.289 31.4531 27.3047 33 27.3281L34.7422 27.3515L34.9219 27.7578C35.1875 28.3359 35.7969 28.9218 36.3672 29.1328C36.75 29.2812 36.9453 29.3047 37.4609 29.2812C38.5156 29.2187 39.2578 28.7422 39.7031 27.8281C39.9375 27.3593 39.9609 27.2422 39.9531 26.6406C39.9453 25.8672 39.7891 25.4375 39.3203 24.914C38.5469 24.0547 37.5313 23.8125 36.3672 24.1953C35.8594 24.3593 35.0859 25.1172 34.8828 25.6406L34.7422 26.0156H33.7031H32.6563L32.7813 25.7187C33.0625 25.0781 33.4609 23.9062 33.6016 23.289C33.8281 22.3672 33.6719 22.0312 33.0156 22.0312C32.8203 22.0312 32.7031 22.0859 32.5938 22.2187ZM37.8594 25.4609C38.4063 25.7109 38.75 26.3359 38.6406 26.8984C38.3672 28.3515 36.2031 28.3125 36.0391 26.8515C35.9844 26.3984 36.1172 26.0234 36.4297 25.7265C36.8672 25.3125 37.3359 25.2265 37.8594 25.4609Z" fill="#EDA708"/>
<path d="M9.57027 28.0547C9.32027 28.1953 9.21871 28.3672 9.21871 28.6406C9.21871 29.3047 11.4375 31.2734 13.3437 32.2969L13.9453 32.6172L13.9687 34.6328L13.9843 36.6406H11.6171H9.24214L9.10933 36.2891C8.91402 35.7969 8.35933 35.2031 7.82808 34.9453C7.43746 34.75 7.29683 34.7266 6.64058 34.7266C5.98433 34.7266 5.85152 34.75 5.48433 34.9453C4.93746 35.2344 4.48433 35.7031 4.23433 36.2422C4.06246 36.6094 4.02339 36.7891 4.03121 37.3438C4.03121 37.9063 4.06246 38.0781 4.24214 38.4453C4.49214 38.961 5.09371 39.5547 5.58589 39.7735C6.94527 40.375 8.69527 39.6328 9.14839 38.2656L9.24214 37.9688H11.8359C14.3984 37.9688 14.4296 37.9688 14.6875 37.7969C14.8281 37.6953 15.0234 37.5156 15.1093 37.3985C15.2656 37.1875 15.2734 37.0703 15.2968 34.6016C15.3125 32.875 15.289 31.9844 15.2343 31.875C15.1875 31.7891 14.8359 31.5625 14.4453 31.3672C13.0546 30.6797 12.0312 29.9297 10.9296 28.8125C10.1484 28.0234 9.89058 27.875 9.57027 28.0547ZM7.40621 36.2266C7.78121 36.5 7.96871 36.8594 7.96871 37.2969C7.96871 38.8125 5.96089 39.1797 5.42183 37.7656C5.30464 37.4531 5.29683 37.3516 5.38277 37.0391C5.49214 36.6406 5.77339 36.2891 6.13277 36.125C6.45308 35.9688 7.14058 36.0234 7.40621 36.2266Z" fill="#EDA708"/>
<path d="M28.5001 29.375C27.5314 30.2266 26.6329 30.836 25.6095 31.3516C25.1876 31.5547 24.8048 31.7969 24.7657 31.8828C24.7111 31.9766 24.6876 32.9141 24.7032 34.6016C24.7267 37.0703 24.7345 37.1875 24.8907 37.3985C24.9767 37.5156 25.172 37.6953 25.3126 37.7969C25.5704 37.9688 25.6017 37.9688 28.1564 37.9688H30.7501L30.8517 38.2656C31.0939 38.9375 31.6017 39.461 32.3282 39.7891C32.9064 40.0469 33.797 40.0313 34.4298 39.7344C35.5939 39.2031 36.2111 37.9297 35.9064 36.711C35.5782 35.4141 34.4845 34.6172 33.1564 34.7031C32.1564 34.7656 31.2267 35.4219 30.8907 36.2891L30.7579 36.6406H28.3907H26.0157V34.625V32.6094L26.5001 32.375C27.4689 31.9219 29.3986 30.5 29.9611 29.8281C30.2345 29.5 30.2267 29.0547 29.9532 28.836C29.5704 28.5391 29.3829 28.6094 28.5001 29.375ZM33.8048 36.1016C34.1564 36.2344 34.5079 36.625 34.6095 37C34.797 37.6485 34.4454 38.3125 33.7892 38.5625C32.9142 38.8906 32.0314 38.2656 32.0314 37.3047C32.0314 36.3828 32.9298 35.7656 33.8048 36.1016Z" fill="#EDA708"/>
<path d="M16.8907 32.5625C16.6563 32.7969 16.5938 33.1094 16.7266 33.3516C16.922 33.6953 17.047 33.7266 18.9688 33.9531L19.297 33.9922V36.6641C19.297 39.0547 19.3126 39.3672 19.4376 39.6094C19.6954 40.125 20.3048 40.125 20.5626 39.6094C20.6876 39.3672 20.7032 39.0547 20.7032 36.6641V33.9922L21.0391 33.9531C22.922 33.7266 23.1641 33.6641 23.2501 33.3281C23.3282 33 23.2501 32.7188 23.0235 32.5469C22.8204 32.3984 22.7813 32.3984 22.1641 32.4922C21.1876 32.6406 19.4376 32.6875 18.6329 32.5859C17.1329 32.3906 17.0626 32.3906 16.8907 32.5625Z" fill="#EDA708"/>
</g>
<defs>
<clipPath id="clip0_11_116">
<rect width="40" height="40" fill="white"/>
</clipPath>
</defs>
</svg>
