<svg width="40" height="40" viewBox="0 0 40 40" fill="none" xmlns="http://www.w3.org/2000/svg">
<path d="M9.76562 1.83594C8.41406 2.04688 6.85156 2.6875 5.71094 3.49219C5.42969 3.69532 4.875 4.17969 4.49219 4.5625C3.375 5.6875 2.625 6.92188 2.14844 8.4375C1.71875 9.82032 1.71875 9.78125 1.71875 20C1.71875 30.3047 1.71875 30.1953 2.17969 31.6484C2.65625 33.125 3.40625 34.3516 4.53125 35.4688C5.64844 36.5938 6.875 37.3438 8.35156 37.8203C9.71875 38.2578 10.0859 38.2813 15.6875 38.2813H20.7969L21.0234 38.0547L21.25 37.8281V31.1797V24.5313L21.0234 24.2813L20.7969 24.0234L18.8359 24L16.875 23.9766V22.2656V20.5469H18.8203C20.7734 20.5469 20.7734 20.5469 20.9922 20.3594L21.2109 20.1719L21.25 16.8984C21.2969 13.3828 21.3125 13.2969 21.7422 12.5547C21.9844 12.1406 22.6562 11.5078 23.1484 11.2109C24.1875 10.6094 25.5781 10.25 27.1875 10.1797C28.0469 10.1406 29.5234 10.2344 29.9453 10.3594C30.0625 10.3984 30.0781 10.5469 30.0781 11.9922V13.5859L28.3047 13.6094L26.5234 13.6328L26.0938 13.875C25.3672 14.2891 24.9531 15.0781 24.9062 16.1328C24.8984 16.3906 24.8984 17.3828 24.9062 18.3438L24.9219 20.0938L25.1484 20.3203L25.375 20.5469H27.5H29.625L29.5781 20.7578C29.5547 20.8828 29.4453 21.5547 29.3359 22.2656C29.2266 22.9766 29.1172 23.6484 29.0938 23.7656L29.0469 23.9844H27.2969C25.4375 23.9844 25.1875 24.0234 25 24.3672C24.8906 24.5781 24.8906 37.6797 25 37.8906C25.2031 38.2656 25.2969 38.2813 27.4219 38.2813C29.7344 38.2813 30.5391 38.1875 31.7812 37.7734C35.1641 36.6406 37.6328 33.6953 38.1641 30.1641C38.3359 29.0547 38.3359 10.9453 38.1641 9.83594C37.5469 5.71875 34.2891 2.45313 30.1797 1.83594C29.1094 1.67188 10.8047 1.67188 9.76562 1.83594ZM30.7422 3.53907C33.5547 4.30469 35.6875 6.44532 36.4688 9.25782L36.6797 10.0391V20V29.9609L36.4688 30.7422C35.6875 33.5625 33.5312 35.7188 30.7422 36.4531C30.0391 36.6406 29.7812 36.6641 28.2266 36.7031L26.4844 36.7344V31.1406V25.5469H28.2344C29.875 25.5469 29.9922 25.5391 30.1797 25.3828C30.4531 25.1719 30.4922 25.0313 30.9375 22.1953C31.2891 19.9453 31.3125 19.7266 31.2109 19.4766C31.0156 19.0234 30.8203 18.9844 28.5156 18.9844H26.4844V17.8438C26.4844 17.2188 26.4531 16.7266 26.4141 16.75C26.3828 16.7734 26.3984 16.5 26.4531 16.1484C26.6172 15.125 26.5312 15.1563 28.9922 15.1563C31.1484 15.1563 31.375 15.125 31.5625 14.7734C31.6094 14.6719 31.6406 13.6641 31.6406 12.0469C31.6406 9.57032 31.6328 9.46875 31.4766 9.27344C31.2266 8.94532 30.0547 8.70313 28.3203 8.625C24.3672 8.4375 21.1953 9.85157 20.125 12.2891C19.7422 13.1406 19.6875 13.6875 19.6875 16.4453V18.9844H17.8516C15.8984 18.9844 15.5703 19.0313 15.3984 19.3594C15.3438 19.4688 15.3125 20.4609 15.3125 22.3047V25.0938L15.5391 25.3203L15.7656 25.5469H17.7266H19.6875V31.1328V36.7266L14.8672 36.7031L10.0391 36.6719L9.28906 36.4688C6.17188 35.6172 3.9375 33.1953 3.40625 30.0859C3.29688 29.4375 3.28125 28.25 3.28125 20C3.28125 11.75 3.29688 10.5625 3.40625 9.91407C3.97656 6.58594 6.55469 3.99219 9.88281 3.40625C10.4062 3.3125 12.125 3.29688 20.2344 3.30469L29.9609 3.32032L30.7422 3.53907Z" fill="#EDA708"/>
</svg>
