<svg width="40" height="40" viewBox="0 0 40 40" fill="none" xmlns="http://www.w3.org/2000/svg">
<g clip-path="url(#clip0_11_138)">
<path d="M11.4453 3.00781C6.20312 3.96094 1.5625 4.80469 1.14062 4.88281C0.554688 4.99219 0.3125 5.07031 0.179688 5.20312L0 5.38281V20V34.6172L0.195312 34.8047C0.296875 34.9141 0.414062 35 0.445312 35C0.476562 35 5.14844 35.8438 10.8203 36.875C16.4922 37.9062 21.2109 38.75 21.3125 38.75C21.4141 38.75 21.5781 38.6641 21.6797 38.5547L21.875 38.3672V20V1.63281L21.6797 1.44531C21.5547 1.3125 21.4062 1.25 21.2344 1.25781C21.0938 1.25781 16.6875 2.04688 11.4453 3.00781ZM20.625 20C20.625 33.8203 20.6016 37.3438 20.5312 37.3438C20.4766 37.3438 16.125 36.5547 10.8594 35.6016L1.28906 33.8594V20V6.14062L10.7812 4.40625C16 3.45312 20.3516 2.67188 20.4531 2.66406L20.625 2.65625V20Z" fill="#EDA708"/>
<path d="M9.789 13.2422C7.89056 13.7735 6.82025 15.5938 7.31244 17.461C7.58587 18.5235 8.24994 19.2578 10.0702 20.4844C10.7812 20.9688 11.5234 21.5235 11.7187 21.7188C12.414 22.4063 12.6562 23.3047 12.3749 24.1875C12.2656 24.5469 12.1327 24.75 11.7968 25.086C11.2187 25.6641 10.6796 25.8828 9.76556 25.8907C9.15619 25.8985 9.04681 25.875 8.48431 25.6094C7.92181 25.3516 7.83587 25.336 7.62494 25.4219C7.30462 25.5547 7.164 25.8985 7.30462 26.2266C7.44525 26.5469 8.33587 26.9922 9.12494 27.125C10.1874 27.3047 11.414 27 12.289 26.3438C13.4452 25.461 13.9921 23.9453 13.6406 22.5782C13.3593 21.4766 12.7031 20.75 10.8593 19.5078C8.96087 18.2266 8.55462 17.75 8.46087 16.7188C8.34369 15.4844 9.37494 14.375 10.6327 14.375C11.1406 14.375 11.7421 14.586 12.1015 14.8907C12.5156 15.25 12.7265 15.3203 13.0234 15.1953C13.3515 15.0547 13.4687 14.711 13.2968 14.3672C13.1327 14.0469 12.4765 13.5782 11.8827 13.3516C11.3124 13.1407 10.3359 13.086 9.789 13.2422Z" fill="#EDA708"/>
<path d="M25.2811 6.37497C24.328 6.60154 23.1249 7.46091 23.1249 7.90622C23.1249 8.21872 23.203 8.35154 23.453 8.48435C23.7577 8.6406 23.9921 8.5781 24.3671 8.24216C24.5311 8.09372 24.8749 7.87497 25.1249 7.75779C25.5155 7.57029 25.6874 7.53904 26.2499 7.53904C26.8124 7.53904 26.9843 7.57029 27.3827 7.75779C27.9921 8.03904 28.5233 8.57029 28.8046 9.17185C28.9921 9.5781 29.0233 9.74997 29.0233 10.3125C29.0233 10.875 28.9921 11.0468 28.8046 11.4531C28.5233 12.0547 27.9921 12.5859 27.3827 12.8672C26.9843 13.0547 26.8124 13.0859 26.2499 13.0859C25.6874 13.0859 25.5155 13.0547 25.1249 12.8672C24.8749 12.75 24.5311 12.5312 24.3671 12.3828C23.9921 12.0468 23.7577 11.9843 23.453 12.1406C22.9686 12.3906 22.9999 12.8047 23.5311 13.2968C24.2968 14.0234 25.5624 14.4531 26.5936 14.3437C27.578 14.2422 28.6483 13.7265 29.2186 13.0703L29.4686 12.789L29.7499 12.9375C30.6483 13.414 31.9296 14.5937 32.5624 15.5234C32.8905 16.0156 33.2811 16.7187 33.2811 16.8203C33.2811 16.8594 33.1171 17.0703 32.9218 17.289C32.203 18.0937 31.828 19.1875 31.9061 20.2422C31.9764 21.289 32.5077 22.3984 33.2264 23.0078L33.5389 23.2734L33.1874 24C32.5546 25.3047 31.5155 26.5078 30.328 27.3047L29.8046 27.664L29.6952 27.4844C29.6327 27.3828 29.3514 27.0781 29.0702 26.7969C28.0936 25.8359 26.828 25.4531 25.4608 25.7031C24.4843 25.8828 23.1249 26.8125 23.1249 27.2969C23.1249 27.539 23.4999 27.9687 23.7108 27.9687C23.8905 27.9687 24.1405 27.8281 24.4139 27.5703C24.5468 27.4531 24.8593 27.25 25.1171 27.1328C25.5155 26.9453 25.6874 26.914 26.2499 26.914C26.8124 26.914 26.9843 26.9453 27.3905 27.1328C27.9921 27.414 28.5233 27.9453 28.8046 28.5547C28.9921 28.9531 29.0233 29.125 29.0233 29.6875C29.0233 30.25 28.9921 30.4219 28.8046 30.8203C28.5233 31.4297 27.9921 31.9609 27.3905 32.2422C26.9843 32.4297 26.8124 32.4609 26.2499 32.4609C25.6874 32.4609 25.5155 32.4297 25.1249 32.2422C24.8749 32.125 24.5311 31.9062 24.3671 31.7578C23.9921 31.4219 23.7577 31.3594 23.453 31.5156C23.203 31.6484 23.1249 31.7812 23.1249 32.0937C23.1249 32.5547 24.4608 33.4609 25.453 33.664C28.0233 34.1953 30.4608 32.0625 30.2889 29.4375L30.2499 28.8359L30.6483 28.5859C32.1483 27.664 33.4764 26.2265 34.2421 24.7031C34.4296 24.3203 34.6014 23.9765 34.6171 23.9297C34.6405 23.8672 34.7655 23.8672 35.078 23.9531C37.0702 24.4687 39.2655 23.164 39.8749 21.1015C40.0389 20.5468 40.0389 19.4531 39.8749 18.8984C39.3358 17.0625 37.6014 15.8281 35.7421 15.9609C35.3983 15.9843 34.9608 16.0625 34.7733 16.1328C34.5858 16.1953 34.4218 16.2422 34.4139 16.2344C34.4061 16.2187 34.2655 15.9609 34.1093 15.664C33.2889 14.1328 32.0233 12.8672 30.2108 11.7578C30.0936 11.6875 30.0936 11.6328 30.1952 11.2109C30.5155 9.87497 30.1093 8.46091 29.1014 7.46091C28.0858 6.44529 26.6639 6.03904 25.2811 6.37497ZM37.078 17.4531C37.6796 17.7265 38.2108 18.2578 38.4921 18.8593C38.6796 19.2656 38.7108 19.4375 38.7108 20C38.7108 20.5625 38.6796 20.7343 38.4921 21.1406C38.2108 21.7422 37.6796 22.2734 37.0702 22.5547C36.6718 22.7422 36.4999 22.7734 35.9374 22.7734C35.3749 22.7734 35.203 22.7422 34.8046 22.5547C34.1952 22.2734 33.6639 21.7422 33.3827 21.1406C33.1952 20.7343 33.1639 20.5625 33.1639 20C33.1639 19.4375 33.1952 19.2656 33.3827 18.8672C34.0546 17.4375 35.6718 16.8125 37.078 17.4531Z" fill="#EDA708"/>
</g>
<defs>
<clipPath id="clip0_11_138">
<rect width="40" height="40" fill="white"/>
</clipPath>
</defs>
</svg>
