<svg width="40" height="40" viewBox="0 0 40 40" fill="none" xmlns="http://www.w3.org/2000/svg">
<g clip-path="url(#clip0_9_85)">
<path d="M19.2188 0.992191C16.4375 1.42969 14.3203 2.47657 12.4609 4.33594C10.9453 5.84375 9.85938 7.75 9.40625 9.70313L9.27344 10.3047L5.32031 10.3281C1.64063 10.3516 1.35156 10.3594 1.09375 10.5C0.710938 10.7031 0.40625 11 0.210938 11.3672L0.0390625 11.6797V20.625V29.5703L0.210938 29.8828C0.40625 30.25 0.710938 30.5469 1.09375 30.75C1.35156 30.8906 1.6875 30.8984 7.42188 30.9219L13.4766 30.9375L13.4453 31.6016C13.3203 34.6875 15.0859 37.6875 17.8672 39.0938C21.9063 41.1484 26.8047 39.5391 28.8125 35.5078C29.1484 34.8203 29.4219 34.0469 29.5156 33.5078C29.5703 33.1953 29.5938 33.1641 29.8047 33.1406C29.9375 33.1328 30.4141 33.0703 30.8672 33.0078C35.3516 32.375 38.9219 28.9688 39.8203 24.4688C40.0156 23.5 40.0078 21.4609 39.8125 20.5078C39.2109 17.6094 37.5781 15.1875 35.1719 13.6172C34.4531 13.1406 33.5078 12.6797 32.7266 12.4219L32.2031 12.25L32.1484 11.6172C31.6875 6.17188 27.6953 1.875 22.3438 1.05469C21.6719 0.945316 19.7188 0.914066 19.2188 0.992191ZM22.6172 2.38282C27.0859 3.30469 30.3984 6.92969 30.8984 11.4453L30.9453 11.9141H29.5156C27.9297 11.9141 27.2422 12.0156 25.9922 12.4375C25.2578 12.6797 24.2891 13.1328 23.7188 13.5C22.6641 14.1719 21.5391 15.2109 20.9297 16.0547L20.6641 16.4219L20.625 14.0547C20.5859 11.8125 20.5781 11.6641 20.4141 11.3672C20.2188 11 19.9141 10.7031 19.5313 10.5C19.2734 10.3594 18.9766 10.3516 14.8984 10.3281L10.5469 10.3047L10.5938 10.0938C10.9844 8.39844 12.0313 6.55469 13.3594 5.23438C14.8984 3.6875 16.9297 2.65625 19.1016 2.30469C19.9844 2.16407 21.75 2.20313 22.6172 2.38282ZM19.1484 11.7891L19.375 12.0156V20.625V29.2344L19.1484 29.4609L18.9219 29.6875H10.3125H1.70313L1.47656 29.4609L1.25 29.2344V20.625V12.0156L1.47656 11.7891L1.70313 11.5625H10.3125H18.9219L19.1484 11.7891ZM30.7031 13.2422C31.7031 13.3906 32.4375 13.6094 33.25 13.9844C35.2344 14.8984 36.8125 16.4375 37.7734 18.3984C38.2422 19.3516 38.4688 20.0703 38.6328 21.1719C39.2266 25.0391 37.2031 29 33.7109 30.7969C32.5391 31.3906 31.5 31.7031 30.1797 31.8438L29.6875 31.8984V31.5938C29.6875 31.0781 29.4688 29.9141 29.2578 29.2969C28.4922 27.0469 26.7813 25.2266 24.625 24.3516C23.6406 23.9531 22.8594 23.8047 21.7031 23.7969L20.625 23.7891V21.4297V19.0625L21.0391 18.2656C22.8672 14.6797 26.7891 12.6406 30.7031 13.2422ZM22.7734 25.1172C26.0078 25.6797 28.4375 28.5781 28.4375 31.875C28.4375 35.1641 26 38.0703 22.7734 38.6328C19.0313 39.2813 15.4531 36.7969 14.8047 33.0859C14.6797 32.375 14.6563 31.5938 14.7344 31.1875L14.7813 30.9453L17.0234 30.9219C19.1406 30.8984 19.2734 30.8906 19.5703 30.7266C19.9375 30.5313 20.2344 30.2266 20.4375 29.8438C20.5703 29.6016 20.5859 29.3359 20.6094 27.3281C20.6328 25.0938 20.6328 25.0859 20.8047 25.0547C21.2031 24.9766 22.1328 25.0078 22.7734 25.1172Z" fill="#EDA708"/>
<path d="M8.98426 14.6953C8.43738 14.7891 7.55457 15.2109 7.13269 15.5781C6.70301 15.9531 6.32801 16.7109 6.27332 17.3203C6.21082 18.0391 6.39832 18.5703 6.91394 19.1328C7.48426 19.7422 8.17957 20.1016 10.0468 20.7344C11.7655 21.3125 12.1093 21.4609 12.5468 21.7813C13.3124 22.3438 13.3046 23.2891 12.5233 23.9922C11.6952 24.7422 10.1639 24.8984 8.08582 24.4531C6.83582 24.1875 6.60926 24.1719 6.41394 24.3672C6.20301 24.5781 6.19519 25.0234 6.39832 25.2266C6.57019 25.3984 6.81238 25.4766 7.91394 25.7031C10.1093 26.1641 11.7577 26.0156 12.9374 25.25C13.5077 24.875 13.8671 24.4766 14.1327 23.9063C14.2968 23.5547 14.328 23.3594 14.3358 22.8125C14.3358 22.0156 14.1796 21.625 13.6171 21.0703C13.1171 20.5625 12.2889 20.1641 10.578 19.5781C8.81238 18.9844 8.26551 18.7344 7.87488 18.3438C7.53113 18 7.43738 17.625 7.57801 17.1641C7.70301 16.7188 8.22644 16.2266 8.75769 16.0469C9.58582 15.7656 11.1249 15.9219 12.6639 16.4453C12.9764 16.5547 13.3436 16.6406 13.4764 16.6406C13.9764 16.6406 14.2499 16.0078 13.9061 15.6406C13.8202 15.5547 13.4296 15.375 13.0311 15.2422C11.453 14.7422 9.89832 14.5313 8.98426 14.6953Z" fill="#EDA708"/>
</g>
<defs>
<clipPath id="clip0_9_85">
<rect width="40" height="40" fill="white"/>
</clipPath>
</defs>
</svg>
