<svg width="40" height="40" viewBox="0 0 40 40" fill="none" xmlns="http://www.w3.org/2000/svg">
<path d="M4.375 1.86719C3.83594 2.03125 3.42969 2.375 3.15625 2.89062C3.01563 3.15625 3.00781 3.625 3.00781 16.0156V28.8672L3.17969 29.1875C3.39844 29.6016 3.89063 30.0234 4.28906 30.1406C4.5 30.2109 5.9375 30.2344 9.24219 30.2344C14.4375 30.2344 13.9844 30.1797 13.9844 30.8125C13.9844 31.1875 14.1797 31.5 14.5156 31.6719C14.6328 31.7266 15.0781 31.8203 15.5078 31.875C16.7188 32.0312 16.7578 32.0859 16.2188 32.8438C15.5234 33.8281 15.4688 33.9219 15.4688 34.2344C15.4688 34.6953 15.6094 34.8828 16.5938 35.8047C17.8359 36.9688 17.9531 36.9844 19.1406 36.0938C19.5391 35.7969 19.8906 35.5469 19.9219 35.5469C20.1172 35.5469 20.2344 35.8125 20.3516 36.4844C20.5156 37.4844 20.5938 37.6953 20.8672 37.9297C21.1016 38.125 21.125 38.125 22.4453 38.125C23.6406 38.125 23.8203 38.1094 24.0391 37.9688C24.4375 37.7344 24.5391 37.4922 24.6719 36.5234C24.7969 35.6484 24.7969 35.6328 25.0156 35.5859C25.2031 35.5391 25.3516 35.6094 25.9063 36.0156C27.125 36.8828 27.1484 36.875 28.4141 35.6016C28.9297 35.0781 29.3984 34.5703 29.4453 34.4766C29.6563 34.0703 29.5234 33.7578 28.6641 32.6016C28.4531 32.3281 28.4297 32.25 28.4922 32.0625C28.5547 31.8828 28.625 31.8281 28.875 31.7891C30.4219 31.5312 30.3359 31.5547 30.6484 31.25C30.8984 30.9922 30.9375 30.9062 30.9375 30.5938V30.2344H32.3672H33.7969L34.375 29.6484L34.9531 29.0625H32.9453H30.9375L30.9297 28.7266C30.9219 27.8828 30.5938 27.5703 29.5938 27.4297C28.5859 27.2891 28.5469 27.2734 28.4453 27.0547C28.3594 26.8672 28.3828 26.8047 28.75 26.2969C29.7188 24.9453 29.7109 24.8672 28.4297 23.6172C27.9141 23.1094 27.3828 22.6484 27.25 22.5938C26.8672 22.4297 26.5625 22.5391 25.7813 23.125C25.0781 23.6484 25.0547 23.6641 24.8438 23.5547C24.6484 23.4531 24.625 23.3828 24.4922 22.5703C24.2656 21.1562 24.0859 21.0391 22.1953 21.1328C20.8672 21.1953 20.625 21.2578 20.4297 21.6328C20.3359 21.8203 20.0781 23.1953 20.0781 23.5156C20.0781 23.5625 19.9922 23.6328 19.875 23.6719C19.7109 23.7422 19.6172 23.7031 19.2578 23.4375C18.4063 22.8047 18.1094 22.6562 17.7422 22.6562C17.4063 22.6562 17.375 22.6797 16.4766 23.5703C15.0781 24.9453 15.0469 25.1094 15.9375 26.2969C16.2344 26.6953 16.4844 27.0703 16.4844 27.125C16.4844 27.3516 16.3203 27.4219 15.4375 27.5703C14.9297 27.6562 14.4297 27.7891 14.3203 27.8516C14.0859 28.0078 13.9063 28.4141 13.9063 28.7891V29.0625H11.4844H9.0625V19.1797V9.29688L22.4453 9.3125L35.8203 9.33594L35.8438 18.75L35.8594 28.1562L36.4453 27.5781L37.0313 27V15.2734C37.0313 2.07031 37.0703 3.00781 36.4453 2.38281C35.8125 1.75 37.1875 1.79688 19.9297 1.80469C11.4844 1.80469 4.48438 1.83594 4.375 1.86719ZM35.6328 3.28125C35.7578 3.46094 35.7734 3.69531 35.7891 5.78125L35.8047 8.08594L20.0156 8.10938L4.21875 8.125V5.78125V3.42969L4.41406 3.24219L4.60156 3.04688L20.0469 3.0625L35.4922 3.08594L35.6328 3.28125ZM7.85156 19.1797V29.0234H6.23438C4.63281 29.0234 4.61719 29.0234 4.42188 28.8359L4.21875 28.6484V18.9688V9.29688L6.03906 9.3125L7.85156 9.33594V19.1797ZM23.3906 23.1641C23.5625 24.1875 23.6719 24.3594 24.2969 24.625C25.1094 24.9688 25.3281 24.9297 26.1406 24.3359C26.5234 24.0547 26.8672 23.8281 26.9141 23.8281C26.9609 23.8281 27.2656 24.1016 27.5938 24.4297L28.1953 25.0391L27.7344 25.6641C27.1563 26.4453 27.0781 26.6875 27.2422 27.1797C27.4375 27.75 27.6406 28.1094 27.8672 28.2578C27.9844 28.3359 28.4375 28.4453 28.8984 28.5156L29.7266 28.6406L29.75 29.5391L29.7734 30.4453L28.9766 30.5781C28.1953 30.7031 27.8438 30.8281 27.6719 31.0391C27.4688 31.2734 27.1797 32.2188 27.2266 32.4688C27.25 32.6016 27.5 33.0156 27.7813 33.3906L28.2891 34.0703L28.1328 34.2812C28.0469 34.3984 27.7734 34.6953 27.5156 34.9531L27.0469 35.4062L26.6172 35.0859C25.8672 34.5391 25.4453 34.2969 25.2188 34.2969C24.8984 34.2969 24.0391 34.7031 23.8516 34.9453C23.7422 35.0859 23.6563 35.375 23.6016 35.7969C23.5469 36.1562 23.4922 36.5625 23.4609 36.6953L23.4219 36.9531H22.5313C21.5156 36.9531 21.6484 37.0781 21.4531 35.9141C21.3125 35.0938 21.1641 34.8125 20.7422 34.6172C19.8359 34.1953 19.6719 34.2266 18.7031 34.9531C18.3281 35.2344 18 35.4688 17.9766 35.4688C17.9453 35.4688 17.6484 35.1875 17.3125 34.8516L16.7031 34.2344L17.1719 33.5781C17.7656 32.7344 17.8125 32.6406 17.8125 32.3281C17.8125 31.9453 17.3984 31.125 17.1328 30.9922C17.0156 30.9297 16.5313 30.8203 16.0625 30.75C15.5859 30.6797 15.1953 30.6094 15.1875 30.6016C15.1406 30.5547 15.1406 28.8984 15.1875 28.8516C15.2109 28.8281 15.6094 28.7422 16.0703 28.6641C16.5625 28.5781 16.9922 28.4609 17.1094 28.375C17.5391 28.0625 17.8594 27.0312 17.6563 26.6328C17.6016 26.5312 17.3438 26.1719 17.0938 25.8359C16.8359 25.5 16.6406 25.1953 16.6563 25.1562C16.7188 24.9688 17.8359 23.9141 17.9219 23.9609C17.9688 23.9922 18.2891 24.2188 18.6328 24.4609C18.9766 24.7031 19.3672 24.9219 19.5 24.9531C19.8203 25.0234 20.5625 24.7422 20.9141 24.4219C21.1719 24.1875 21.1953 24.125 21.3203 23.2812L21.4531 22.3828L22.3047 22.3438C22.7813 22.3203 23.1875 22.3203 23.2109 22.3438C23.2422 22.3672 23.3203 22.7344 23.3906 23.1641Z" fill="#EDA708"/>
<path d="M7.32824 3.75001C6.81261 3.84376 6.32043 4.21095 6.07043 4.68751C5.87511 5.07032 5.85168 5.1797 5.87511 5.6797C5.89855 6.14845 5.93761 6.28907 6.13293 6.57813C6.8048 7.52345 8.14074 7.6797 8.93761 6.90626C9.29699 6.5547 9.45324 6.25782 9.50793 5.78126C9.65636 4.54688 8.53918 3.51563 7.32824 3.75001ZM8.07824 5.08595C8.22668 5.20313 8.28136 5.31251 8.28136 5.53126C8.28136 6.31251 7.21105 6.41407 7.06261 5.64845C7.02355 5.43751 7.0548 5.35938 7.25011 5.15626C7.53136 4.88282 7.78918 4.85938 8.07824 5.08595Z" fill="#EDA708"/>
<path d="M12.4298 3.75783C11.3986 3.95314 10.7657 4.96877 11.0157 6.02345C11.1564 6.60939 11.7501 7.20314 12.3361 7.34377C13.5548 7.63283 14.6251 6.78908 14.6173 5.53908C14.6173 4.84377 14.2892 4.28908 13.6954 3.96877C13.2501 3.73439 12.8986 3.67189 12.4298 3.75783ZM13.0704 5.00783C13.2736 5.10158 13.4376 5.37502 13.4376 5.63283C13.4376 5.87502 13.0939 6.17189 12.8048 6.17189C12.2423 6.17189 11.9767 5.51564 12.3829 5.1172C12.5861 4.90627 12.7814 4.87502 13.0704 5.00783Z" fill="#EDA708"/>
<path d="M16.4297 5C16.0468 5.15625 15.9687 5.75 16.2968 6.00781C16.5078 6.17188 16.5234 6.17188 25.1172 6.17188C33.7109 6.17188 33.7265 6.17188 33.9375 6.00781C34.1875 5.8125 34.2187 5.39062 34 5.17188C33.8672 5.03906 33.6093 5.02344 30.3828 4.97656C25.5156 4.89844 16.6328 4.92188 16.4297 5Z" fill="#EDA708"/>
<path d="M21.2499 25.8828C20.1327 26.2656 19.4062 26.8984 18.8906 27.9453C18.5859 28.5547 18.5624 28.6484 18.5312 29.4062C18.4921 30.3906 18.6562 31.0391 19.1249 31.7578C19.6406 32.5469 20.2187 33.0078 21.1327 33.3594C21.5156 33.5078 21.7421 33.5391 22.4218 33.5391C23.6796 33.5391 24.4921 33.1797 25.3437 32.2656C26.7812 30.7109 26.7187 28.3203 25.2031 26.8359C24.1484 25.8047 22.5781 25.4297 21.2499 25.8828ZM23.539 27.0937C24.0859 27.3359 24.7031 27.9609 24.9609 28.5391C25.3984 29.4922 25.2109 30.6719 24.4921 31.4609C23.4296 32.6484 21.6484 32.7031 20.4999 31.5859C19.5234 30.6406 19.4218 29.0547 20.2656 27.9453C20.5624 27.5469 21.1327 27.1484 21.6327 26.9922C22.1327 26.8281 23.0546 26.8828 23.539 27.0937Z" fill="#EDA708"/>
<path d="M23.3984 11.3281C23.3047 11.3594 23.1953 11.4375 23.1406 11.5078C23.0078 11.6641 20.7031 18.3281 20.7031 18.5547C20.7031 18.8516 20.9609 19.0938 21.2812 19.0938C21.4375 19.0938 21.6172 19.0391 21.6875 18.9688C21.8438 18.8125 24.1406 12.2344 24.1562 11.8906C24.1797 11.4922 23.7578 11.1797 23.3984 11.3281Z" fill="#EDA708"/>
<path d="M15.9922 12.8281C14.3594 14.5234 13.9844 14.9766 13.9844 15.2266C13.9844 15.4219 14.2266 15.7109 15.4062 16.9531C16.1875 17.7734 16.9062 18.4609 17.0078 18.4844C17.4844 18.6094 17.8906 18.1797 17.7266 17.7422C17.6797 17.6406 17.1562 17.0391 16.5625 16.4062C15.9609 15.7734 15.4688 15.2266 15.4688 15.1953C15.4688 15.1719 15.9688 14.6172 16.5781 13.9766C17.1875 13.3359 17.7188 12.7422 17.75 12.6562C17.8203 12.4531 17.6797 12.0469 17.5 11.9531C17.1094 11.7422 16.9531 11.8359 15.9922 12.8281Z" fill="#EDA708"/>
<path d="M27.3048 12.0703C26.922 12.4453 27.0079 12.6484 27.9923 13.6562C28.4688 14.1641 29.0001 14.7188 29.172 14.8984L29.4688 15.2188L28.5392 16.1875C27.297 17.4766 27.1095 17.7031 27.1095 17.9375C27.1095 18.2031 27.4376 18.5156 27.711 18.5156C27.9376 18.5156 28.2032 18.2734 30.1798 16.2031C31.172 15.1562 31.2032 15.2734 29.4767 13.4688C28.7188 12.6719 28.0392 11.9922 27.961 11.9453C27.7267 11.8281 27.5001 11.8672 27.3048 12.0703Z" fill="#EDA708"/>
</svg>
